<svg width="128" height="128" viewBox="0 0 128 128" fill="none" xmlns="http://www.w3.org/2000/svg">
<path d="M34.3172 64.4208C35.5166 68.7059 37.1511 72.8526 39.1942 76.7941C40.1273 78.5393 41.0603 80.2844 42.7547 81.3839C43.0483 81.5713 43.3718 81.7052 43.7106 81.7794C46.2064 82.3205 47.5746 80.2786 48.4561 78.4113C49.7716 75.4815 50.8345 72.4413 51.6331 69.3248C51.7876 68.743 51.9364 68.1613 52.0852 67.5796C52.3714 66.4685 52.6577 65.3458 52.9038 64.223L63.9173 34.3225C66.205 31.2261 69.1709 28.7135 72.5796 26.9839C75.9884 25.2543 79.747 24.3551 83.557 24.3576C89.0437 24.3233 94.3782 26.1905 98.6805 29.6513C105.882 35.1893 110.169 46.0966 110.169 46.0966C110.794 47.5167 111.116 49.0551 111.114 50.6107C111.111 52.0515 110.829 53.4776 110.283 54.8075C109.738 56.1374 108.94 57.3452 107.935 58.3618C106.931 59.3785 105.739 60.184 104.428 60.7325C103.117 61.2811 101.713 61.5618 100.295 61.5588C98.7183 61.5577 97.1607 61.2044 95.7337 60.5238C94.306 59.8433 93.0433 58.8521 92.0347 57.6205L91.9316 57.4925C91.2396 56.543 90.6626 55.5116 90.2143 54.421C89.6207 53.0521 88.9556 51.7161 88.2223 50.4188C87.8331 49.7498 87.398 49.1157 86.9515 48.4874C86.5657 47.9258 86.1095 47.4175 85.5949 46.975C84.5817 46.1431 83.3052 45.8115 82.1145 46.527C82.0573 46.5605 82.0018 46.5974 81.9485 46.6376C80.7235 47.4927 79.8649 49.2204 79.2696 50.5467C77.5523 54.3047 76.5677 58.1557 75.5946 62.1114C75.4114 62.8735 75.2283 63.6355 75.0565 64.4034L70.5057 79.5282L64.089 93.9083C61.7917 96.9211 58.8517 99.3649 55.4904 101.056C52.1292 102.746 48.4342 103.641 44.6838 103.67C29.0966 104.007 21.7009 89.7083 21.7009 89.7083C12.8226 74.9093 10.2066 55.3867 9.58269 49.1448C9.45104 47.8475 9.44531 47.0739 9.44531 47.0739C9.44459 45.1187 9.9694 43.2005 10.9631 41.5264C11.9568 39.8522 13.3816 38.4856 15.0837 37.5743C16.8436 36.6681 18.8021 36.2336 20.7736 36.312C22.6078 36.3899 24.3924 36.9404 25.9598 37.9117C27.1778 38.6525 28.2305 39.6432 29.0508 40.8203C30.5163 42.9378 30.8483 45.573 31.1402 48.0919C31.7464 53.6159 32.8091 59.0781 34.3172 64.4208Z" fill="url(#paint0_linear_7_6369)"/>
<path d="M34.3172 64.4208C35.5166 68.7059 37.1511 72.8526 39.1942 76.7941C40.1273 78.5393 41.0603 80.2844 42.7547 81.3839C43.0483 81.5713 43.3718 81.7052 43.7106 81.7794C46.2064 82.3205 47.5746 80.2786 48.4561 78.4113C49.7716 75.4815 50.8345 72.4413 51.6331 69.3248C51.7876 68.743 51.9364 68.1613 52.0852 67.5796C52.3714 66.4685 52.6577 65.3458 52.9038 64.223L63.9173 34.3225C66.205 31.2261 69.1709 28.7135 72.5796 26.9839C75.9884 25.2543 79.747 24.3551 83.557 24.3576C89.0437 24.3233 94.3782 26.1905 98.6805 29.6513C105.882 35.1893 110.169 46.0966 110.169 46.0966C110.794 47.5167 111.116 49.0551 111.114 50.6107C111.111 52.0515 110.829 53.4776 110.283 54.8075C109.738 56.1374 108.94 57.3452 107.935 58.3618C106.931 59.3785 105.739 60.184 104.428 60.7325C103.117 61.2811 101.713 61.5618 100.295 61.5588C98.7183 61.5577 97.1607 61.2044 95.7337 60.5238C94.306 59.8433 93.0433 58.8521 92.0347 57.6205L91.9316 57.4925C91.2396 56.543 90.6626 55.5116 90.2143 54.421C89.6207 53.0521 88.9556 51.7161 88.2223 50.4188C87.8331 49.7498 87.398 49.1157 86.9515 48.4874C86.5657 47.9258 86.1095 47.4175 85.5949 46.975C84.5817 46.1431 83.3052 45.8115 82.1145 46.527C82.0573 46.5605 82.0018 46.5974 81.9485 46.6376C80.7235 47.4927 79.8649 49.2204 79.2696 50.5467C77.5523 54.3047 76.5677 58.1557 75.5946 62.1114C75.4114 62.8735 75.2283 63.6355 75.0565 64.4034L70.5057 79.5282L64.089 93.9083C61.7917 96.9211 58.8517 99.3649 55.4904 101.056C52.1292 102.746 48.4342 103.641 44.6838 103.67C29.0966 104.007 21.7009 89.7083 21.7009 89.7083C12.8226 74.9093 10.2066 55.3867 9.58269 49.1448C9.45104 47.8475 9.44531 47.0739 9.44531 47.0739C9.44459 45.1187 9.9694 43.2005 10.9631 41.5264C11.9568 39.8522 13.3816 38.4856 15.0837 37.5743C16.8436 36.6681 18.8021 36.2336 20.7736 36.312C22.6078 36.3899 24.3924 36.9404 25.9598 37.9117C27.1778 38.6525 28.2305 39.6432 29.0508 40.8203C30.5163 42.9378 30.8483 45.573 31.1402 48.0919C31.7464 53.6159 32.8091 59.0781 34.3172 64.4208Z" fill="url(#paint1_radial_7_6369)"/>
<path d="M34.3172 64.4208C35.5166 68.7059 37.1511 72.8526 39.1942 76.7941C40.1273 78.5393 41.0603 80.2844 42.7547 81.3839C43.0483 81.5713 43.3718 81.7052 43.7106 81.7794C46.2064 82.3205 47.5746 80.2786 48.4561 78.4113C49.7716 75.4815 50.8345 72.4413 51.6331 69.3248C51.7876 68.743 51.9364 68.1613 52.0852 67.5796C52.3714 66.4685 52.6577 65.3458 52.9038 64.223L63.9173 34.3225C66.205 31.2261 69.1709 28.7135 72.5796 26.9839C75.9884 25.2543 79.747 24.3551 83.557 24.3576C89.0437 24.3233 94.3782 26.1905 98.6805 29.6513C105.882 35.1893 110.169 46.0966 110.169 46.0966C110.794 47.5167 111.116 49.0551 111.114 50.6107C111.111 52.0515 110.829 53.4776 110.283 54.8075C109.738 56.1374 108.94 57.3452 107.935 58.3618C106.931 59.3785 105.739 60.184 104.428 60.7325C103.117 61.2811 101.713 61.5618 100.295 61.5588C98.7183 61.5577 97.1607 61.2044 95.7337 60.5238C94.306 59.8433 93.0433 58.8521 92.0347 57.6205L91.9316 57.4925C91.2396 56.543 90.6626 55.5116 90.2143 54.421C89.6207 53.0521 88.9556 51.7161 88.2223 50.4188C87.8331 49.7498 87.398 49.1157 86.9515 48.4874C86.5657 47.9258 86.1095 47.4175 85.5949 46.975C84.5817 46.1431 83.3052 45.8115 82.1145 46.527C82.0573 46.5605 82.0018 46.5974 81.9485 46.6376C80.7235 47.4927 79.8649 49.2204 79.2696 50.5467C77.5523 54.3047 76.5677 58.1557 75.5946 62.1114C75.4114 62.8735 75.2283 63.6355 75.0565 64.4034L70.5057 79.5282L64.089 93.9083C61.7917 96.9211 58.8517 99.3649 55.4904 101.056C52.1292 102.746 48.4342 103.641 44.6838 103.67C29.0966 104.007 21.7009 89.7083 21.7009 89.7083C12.8226 74.9093 10.2066 55.3867 9.58269 49.1448C9.45104 47.8475 9.44531 47.0739 9.44531 47.0739C9.44459 45.1187 9.9694 43.2005 10.9631 41.5264C11.9568 39.8522 13.3816 38.4856 15.0837 37.5743C16.8436 36.6681 18.8021 36.2336 20.7736 36.312C22.6078 36.3899 24.3924 36.9404 25.9598 37.9117C27.1778 38.6525 28.2305 39.6432 29.0508 40.8203C30.5163 42.9378 30.8483 45.573 31.1402 48.0919C31.7464 53.6159 32.8091 59.0781 34.3172 64.4208Z" fill="url(#paint2_radial_7_6369)"/>
<path d="M34.3172 64.4208C35.5166 68.7059 37.1511 72.8526 39.1942 76.7941C40.1273 78.5393 41.0603 80.2844 42.7547 81.3839C43.0483 81.5713 43.3718 81.7052 43.7106 81.7794C46.2064 82.3205 47.5746 80.2786 48.4561 78.4113C49.7716 75.4815 50.8345 72.4413 51.6331 69.3248C51.7876 68.743 51.9364 68.1613 52.0852 67.5796C52.3714 66.4685 52.6577 65.3458 52.9038 64.223L63.9173 34.3225C66.205 31.2261 69.1709 28.7135 72.5796 26.9839C75.9884 25.2543 79.747 24.3551 83.557 24.3576C89.0437 24.3233 94.3782 26.1905 98.6805 29.6513C105.882 35.1893 110.169 46.0966 110.169 46.0966C110.794 47.5167 111.116 49.0551 111.114 50.6107C111.111 52.0515 110.829 53.4776 110.283 54.8075C109.738 56.1374 108.94 57.3452 107.935 58.3618C106.931 59.3785 105.739 60.184 104.428 60.7325C103.117 61.2811 101.713 61.5618 100.295 61.5588C98.7183 61.5577 97.1607 61.2044 95.7337 60.5238C94.306 59.8433 93.0433 58.8521 92.0347 57.6205L91.9316 57.4925C91.2396 56.543 90.6626 55.5116 90.2143 54.421C89.6207 53.0521 88.9556 51.7161 88.2223 50.4188C87.8331 49.7498 87.398 49.1157 86.9515 48.4874C86.5657 47.9258 86.1095 47.4175 85.5949 46.975C84.5817 46.1431 83.3052 45.8115 82.1145 46.527C82.0573 46.5605 82.0018 46.5974 81.9485 46.6376C80.7235 47.4927 79.8649 49.2204 79.2696 50.5467C77.5523 54.3047 76.5677 58.1557 75.5946 62.1114C75.4114 62.8735 75.2283 63.6355 75.0565 64.4034L70.5057 79.5282L64.089 93.9083C61.7917 96.9211 58.8517 99.3649 55.4904 101.056C52.1292 102.746 48.4342 103.641 44.6838 103.67C29.0966 104.007 21.7009 89.7083 21.7009 89.7083C12.8226 74.9093 10.2066 55.3867 9.58269 49.1448C9.45104 47.8475 9.44531 47.0739 9.44531 47.0739C9.44459 45.1187 9.9694 43.2005 10.9631 41.5264C11.9568 39.8522 13.3816 38.4856 15.0837 37.5743C16.8436 36.6681 18.8021 36.2336 20.7736 36.312C22.6078 36.3899 24.3924 36.9404 25.9598 37.9117C27.1778 38.6525 28.2305 39.6432 29.0508 40.8203C30.5163 42.9378 30.8483 45.573 31.1402 48.0919C31.7464 53.6159 32.8091 59.0781 34.3172 64.4208Z" fill="url(#paint3_radial_7_6369)"/>
<path d="M34.3172 64.4208C35.5166 68.7059 37.1511 72.8526 39.1942 76.7941C40.1273 78.5393 41.0603 80.2844 42.7547 81.3839C43.0483 81.5713 43.3718 81.7052 43.7106 81.7794C46.2064 82.3205 47.5746 80.2786 48.4561 78.4113C49.7716 75.4815 50.8345 72.4413 51.6331 69.3248C51.7876 68.743 51.9364 68.1613 52.0852 67.5796C52.3714 66.4685 52.6577 65.3458 52.9038 64.223L63.9173 34.3225C66.205 31.2261 69.1709 28.7135 72.5796 26.9839C75.9884 25.2543 79.747 24.3551 83.557 24.3576C89.0437 24.3233 94.3782 26.1905 98.6805 29.6513C105.882 35.1893 110.169 46.0966 110.169 46.0966C110.794 47.5167 111.116 49.0551 111.114 50.6107C111.111 52.0515 110.829 53.4776 110.283 54.8075C109.738 56.1374 108.94 57.3452 107.935 58.3618C106.931 59.3785 105.739 60.184 104.428 60.7325C103.117 61.2811 101.713 61.5618 100.295 61.5588C98.7183 61.5577 97.1607 61.2044 95.7337 60.5238C94.306 59.8433 93.0433 58.8521 92.0347 57.6205L91.9316 57.4925C91.2396 56.543 90.6626 55.5116 90.2143 54.421C89.6207 53.0521 88.9556 51.7161 88.2223 50.4188C87.8331 49.7498 87.398 49.1157 86.9515 48.4874C86.5657 47.9258 86.1095 47.4175 85.5949 46.975C84.5817 46.1431 83.3052 45.8115 82.1145 46.527C82.0573 46.5605 82.0018 46.5974 81.9485 46.6376C80.7235 47.4927 79.8649 49.2204 79.2696 50.5467C77.5523 54.3047 76.5677 58.1557 75.5946 62.1114C75.4114 62.8735 75.2283 63.6355 75.0565 64.4034L70.5057 79.5282L64.089 93.9083C61.7917 96.9211 58.8517 99.3649 55.4904 101.056C52.1292 102.746 48.4342 103.641 44.6838 103.67C29.0966 104.007 21.7009 89.7083 21.7009 89.7083C12.8226 74.9093 10.2066 55.3867 9.58269 49.1448C9.45104 47.8475 9.44531 47.0739 9.44531 47.0739C9.44459 45.1187 9.9694 43.2005 10.9631 41.5264C11.9568 39.8522 13.3816 38.4856 15.0837 37.5743C16.8436 36.6681 18.8021 36.2336 20.7736 36.312C22.6078 36.3899 24.3924 36.9404 25.9598 37.9117C27.1778 38.6525 28.2305 39.6432 29.0508 40.8203C30.5163 42.9378 30.8483 45.573 31.1402 48.0919C31.7464 53.6159 32.8091 59.0781 34.3172 64.4208Z" fill="url(#paint4_radial_7_6369)"/>
<path d="M34.3172 64.4208C35.5166 68.7059 37.1511 72.8526 39.1942 76.7941C40.1273 78.5393 41.0603 80.2844 42.7547 81.3839C43.0483 81.5713 43.3718 81.7052 43.7106 81.7794C46.2064 82.3205 47.5746 80.2786 48.4561 78.4113C49.7716 75.4815 50.8345 72.4413 51.6331 69.3248C51.7876 68.743 51.9364 68.1613 52.0852 67.5796C52.3714 66.4685 52.6577 65.3458 52.9038 64.223L63.9173 34.3225C66.205 31.2261 69.1709 28.7135 72.5796 26.9839C75.9884 25.2543 79.747 24.3551 83.557 24.3576C89.0437 24.3233 94.3782 26.1905 98.6805 29.6513C105.882 35.1893 110.169 46.0966 110.169 46.0966C110.794 47.5167 111.116 49.0551 111.114 50.6107C111.111 52.0515 110.829 53.4776 110.283 54.8075C109.738 56.1374 108.94 57.3452 107.935 58.3618C106.931 59.3785 105.739 60.184 104.428 60.7325C103.117 61.2811 101.713 61.5618 100.295 61.5588C98.7183 61.5577 97.1607 61.2044 95.7337 60.5238C94.306 59.8433 93.0433 58.8521 92.0347 57.6205L91.9316 57.4925C91.2396 56.543 90.6626 55.5116 90.2143 54.421C89.6207 53.0521 88.9556 51.7161 88.2223 50.4188C87.8331 49.7498 87.398 49.1157 86.9515 48.4874C86.5657 47.9258 86.1095 47.4175 85.5949 46.975C84.5817 46.1431 83.3052 45.8115 82.1145 46.527C82.0573 46.5605 82.0018 46.5974 81.9485 46.6376C80.7235 47.4927 79.8649 49.2204 79.2696 50.5467C77.5523 54.3047 76.5677 58.1557 75.5946 62.1114C75.4114 62.8735 75.2283 63.6355 75.0565 64.4034L70.5057 79.5282L64.089 93.9083C61.7917 96.9211 58.8517 99.3649 55.4904 101.056C52.1292 102.746 48.4342 103.641 44.6838 103.67C29.0966 104.007 21.7009 89.7083 21.7009 89.7083C12.8226 74.9093 10.2066 55.3867 9.58269 49.1448C9.45104 47.8475 9.44531 47.0739 9.44531 47.0739C9.44459 45.1187 9.9694 43.2005 10.9631 41.5264C11.9568 39.8522 13.3816 38.4856 15.0837 37.5743C16.8436 36.6681 18.8021 36.2336 20.7736 36.312C22.6078 36.3899 24.3924 36.9404 25.9598 37.9117C27.1778 38.6525 28.2305 39.6432 29.0508 40.8203C30.5163 42.9378 30.8483 45.573 31.1402 48.0919C31.7464 53.6159 32.8091 59.0781 34.3172 64.4208Z" fill="url(#paint5_radial_7_6369)"/>
<path d="M34.3172 64.4208C35.5166 68.7059 37.1511 72.8526 39.1942 76.7941C40.1273 78.5393 41.0603 80.2844 42.7547 81.3839C43.0483 81.5713 43.3718 81.7052 43.7106 81.7794C46.2064 82.3205 47.5746 80.2786 48.4561 78.4113C49.7716 75.4815 50.8345 72.4413 51.6331 69.3248C51.7876 68.743 51.9364 68.1613 52.0852 67.5796C52.3714 66.4685 52.6577 65.3458 52.9038 64.223L63.9173 34.3225C66.205 31.2261 69.1709 28.7135 72.5796 26.9839C75.9884 25.2543 79.747 24.3551 83.557 24.3576C89.0437 24.3233 94.3782 26.1905 98.6805 29.6513C105.882 35.1893 110.169 46.0966 110.169 46.0966C110.794 47.5167 111.116 49.0551 111.114 50.6107C111.111 52.0515 110.829 53.4776 110.283 54.8075C109.738 56.1374 108.94 57.3452 107.935 58.3618C106.931 59.3785 105.739 60.184 104.428 60.7325C103.117 61.2811 101.713 61.5618 100.295 61.5588C98.7183 61.5577 97.1607 61.2044 95.7337 60.5238C94.306 59.8433 93.0433 58.8521 92.0347 57.6205L91.9316 57.4925C91.2396 56.543 90.6626 55.5116 90.2143 54.421C89.6207 53.0521 88.9556 51.7161 88.2223 50.4188C87.8331 49.7498 87.398 49.1157 86.9515 48.4874C86.5657 47.9258 86.1095 47.4175 85.5949 46.975C84.5817 46.1431 83.3052 45.8115 82.1145 46.527C82.0573 46.5605 82.0018 46.5974 81.9485 46.6376C80.7235 47.4927 79.8649 49.2204 79.2696 50.5467C77.5523 54.3047 76.5677 58.1557 75.5946 62.1114C75.4114 62.8735 75.2283 63.6355 75.0565 64.4034L70.5057 79.5282L64.089 93.9083C61.7917 96.9211 58.8517 99.3649 55.4904 101.056C52.1292 102.746 48.4342 103.641 44.6838 103.67C29.0966 104.007 21.7009 89.7083 21.7009 89.7083C12.8226 74.9093 10.2066 55.3867 9.58269 49.1448C9.45104 47.8475 9.44531 47.0739 9.44531 47.0739C9.44459 45.1187 9.9694 43.2005 10.9631 41.5264C11.9568 39.8522 13.3816 38.4856 15.0837 37.5743C16.8436 36.6681 18.8021 36.2336 20.7736 36.312C22.6078 36.3899 24.3924 36.9404 25.9598 37.9117C27.1778 38.6525 28.2305 39.6432 29.0508 40.8203C30.5163 42.9378 30.8483 45.573 31.1402 48.0919C31.7464 53.6159 32.8091 59.0781 34.3172 64.4208Z" fill="url(#paint6_radial_7_6369)"/>
<path d="M34.3172 64.4208C35.5166 68.7059 37.1511 72.8526 39.1942 76.7941C40.1273 78.5393 41.0603 80.2844 42.7547 81.3839C43.0483 81.5713 43.3718 81.7052 43.7106 81.7794C46.2064 82.3205 47.5746 80.2786 48.4561 78.4113C49.7716 75.4815 50.8345 72.4413 51.6331 69.3248C51.7876 68.743 51.9364 68.1613 52.0852 67.5796C52.3714 66.4685 52.6577 65.3458 52.9038 64.223L63.9173 34.3225C66.205 31.2261 69.1709 28.7135 72.5796 26.9839C75.9884 25.2543 79.747 24.3551 83.557 24.3576C89.0437 24.3233 94.3782 26.1905 98.6805 29.6513C105.882 35.1893 110.169 46.0966 110.169 46.0966C110.794 47.5167 111.116 49.0551 111.114 50.6107C111.111 52.0515 110.829 53.4776 110.283 54.8075C109.738 56.1374 108.94 57.3452 107.935 58.3618C106.931 59.3785 105.739 60.184 104.428 60.7325C103.117 61.2811 101.713 61.5618 100.295 61.5588C98.7183 61.5577 97.1607 61.2044 95.7337 60.5238C94.306 59.8433 93.0433 58.8521 92.0347 57.6205L91.9316 57.4925C91.2396 56.543 90.6626 55.5116 90.2143 54.421C89.6207 53.0521 88.9556 51.7161 88.2223 50.4188C87.8331 49.7498 87.398 49.1157 86.9515 48.4874C86.5657 47.9258 86.1095 47.4175 85.5949 46.975C84.5817 46.1431 83.3052 45.8115 82.1145 46.527C82.0573 46.5605 82.0018 46.5974 81.9485 46.6376C80.7235 47.4927 79.8649 49.2204 79.2696 50.5467C77.5523 54.3047 76.5677 58.1557 75.5946 62.1114C75.4114 62.8735 75.2283 63.6355 75.0565 64.4034L70.5057 79.5282L64.089 93.9083C61.7917 96.9211 58.8517 99.3649 55.4904 101.056C52.1292 102.746 48.4342 103.641 44.6838 103.67C29.0966 104.007 21.7009 89.7083 21.7009 89.7083C12.8226 74.9093 10.2066 55.3867 9.58269 49.1448C9.45104 47.8475 9.44531 47.0739 9.44531 47.0739C9.44459 45.1187 9.9694 43.2005 10.9631 41.5264C11.9568 39.8522 13.3816 38.4856 15.0837 37.5743C16.8436 36.6681 18.8021 36.2336 20.7736 36.312C22.6078 36.3899 24.3924 36.9404 25.9598 37.9117C27.1778 38.6525 28.2305 39.6432 29.0508 40.8203C30.5163 42.9378 30.8483 45.573 31.1402 48.0919C31.7464 53.6159 32.8091 59.0781 34.3172 64.4208Z" fill="url(#paint7_radial_7_6369)"/>
<path d="M34.3172 64.4208C35.5166 68.7059 37.1511 72.8526 39.1942 76.7941C40.1273 78.5393 41.0603 80.2844 42.7547 81.3839C43.0483 81.5713 43.3718 81.7052 43.7106 81.7794C46.2064 82.3205 47.5746 80.2786 48.4561 78.4113C49.7716 75.4815 50.8345 72.4413 51.6331 69.3248C51.7876 68.743 51.9364 68.1613 52.0852 67.5796C52.3714 66.4685 52.6577 65.3458 52.9038 64.223L63.9173 34.3225C66.205 31.2261 69.1709 28.7135 72.5796 26.9839C75.9884 25.2543 79.747 24.3551 83.557 24.3576C89.0437 24.3233 94.3782 26.1905 98.6805 29.6513C105.882 35.1893 110.169 46.0966 110.169 46.0966C110.794 47.5167 111.116 49.0551 111.114 50.6107C111.111 52.0515 110.829 53.4776 110.283 54.8075C109.738 56.1374 108.94 57.3452 107.935 58.3618C106.931 59.3785 105.739 60.184 104.428 60.7325C103.117 61.2811 101.713 61.5618 100.295 61.5588C98.7183 61.5577 97.1607 61.2044 95.7337 60.5238C94.306 59.8433 93.0433 58.8521 92.0347 57.6205L91.9316 57.4925C91.2396 56.543 90.6626 55.5116 90.2143 54.421C89.6207 53.0521 88.9556 51.7161 88.2223 50.4188C87.8331 49.7498 87.398 49.1157 86.9515 48.4874C86.5657 47.9258 86.1095 47.4175 85.5949 46.975C84.5817 46.1431 83.3052 45.8115 82.1145 46.527C82.0573 46.5605 82.0018 46.5974 81.9485 46.6376C80.7235 47.4927 79.8649 49.2204 79.2696 50.5467C77.5523 54.3047 76.5677 58.1557 75.5946 62.1114C75.4114 62.8735 75.2283 63.6355 75.0565 64.4034L70.5057 79.5282L64.089 93.9083C61.7917 96.9211 58.8517 99.3649 55.4904 101.056C52.1292 102.746 48.4342 103.641 44.6838 103.67C29.0966 104.007 21.7009 89.7083 21.7009 89.7083C12.8226 74.9093 10.2066 55.3867 9.58269 49.1448C9.45104 47.8475 9.44531 47.0739 9.44531 47.0739C9.44459 45.1187 9.9694 43.2005 10.9631 41.5264C11.9568 39.8522 13.3816 38.4856 15.0837 37.5743C16.8436 36.6681 18.8021 36.2336 20.7736 36.312C22.6078 36.3899 24.3924 36.9404 25.9598 37.9117C27.1778 38.6525 28.2305 39.6432 29.0508 40.8203C30.5163 42.9378 30.8483 45.573 31.1402 48.0919C31.7464 53.6159 32.8091 59.0781 34.3172 64.4208Z" fill="url(#paint8_radial_7_6369)"/>
<path d="M34.3172 64.4208C35.5166 68.7059 37.1511 72.8526 39.1942 76.7941C40.1273 78.5393 41.0603 80.2844 42.7547 81.3839C43.0483 81.5713 43.3718 81.7052 43.7106 81.7794C46.2064 82.3205 47.5746 80.2786 48.4561 78.4113C49.7716 75.4815 50.8345 72.4413 51.6331 69.3248C51.7876 68.743 51.9364 68.1613 52.0852 67.5796C52.3714 66.4685 52.6577 65.3458 52.9038 64.223L63.9173 34.3225C66.205 31.2261 69.1709 28.7135 72.5796 26.9839C75.9884 25.2543 79.747 24.3551 83.557 24.3576C89.0437 24.3233 94.3782 26.1905 98.6805 29.6513C105.882 35.1893 110.169 46.0966 110.169 46.0966C110.794 47.5167 111.116 49.0551 111.114 50.6107C111.111 52.0515 110.829 53.4776 110.283 54.8075C109.738 56.1374 108.94 57.3452 107.935 58.3618C106.931 59.3785 105.739 60.184 104.428 60.7325C103.117 61.2811 101.713 61.5618 100.295 61.5588C98.7183 61.5577 97.1607 61.2044 95.7337 60.5238C94.306 59.8433 93.0433 58.8521 92.0347 57.6205L91.9316 57.4925C91.2396 56.543 90.6626 55.5116 90.2143 54.421C89.6207 53.0521 88.9556 51.7161 88.2223 50.4188C87.8331 49.7498 87.398 49.1157 86.9515 48.4874C86.5657 47.9258 86.1095 47.4175 85.5949 46.975C84.5817 46.1431 83.3052 45.8115 82.1145 46.527C82.0573 46.5605 82.0018 46.5974 81.9485 46.6376C80.7235 47.4927 79.8649 49.2204 79.2696 50.5467C77.5523 54.3047 76.5677 58.1557 75.5946 62.1114C75.4114 62.8735 75.2283 63.6355 75.0565 64.4034L70.5057 79.5282L64.089 93.9083C61.7917 96.9211 58.8517 99.3649 55.4904 101.056C52.1292 102.746 48.4342 103.641 44.6838 103.67C29.0966 104.007 21.7009 89.7083 21.7009 89.7083C12.8226 74.9093 10.2066 55.3867 9.58269 49.1448C9.45104 47.8475 9.44531 47.0739 9.44531 47.0739C9.44459 45.1187 9.9694 43.2005 10.9631 41.5264C11.9568 39.8522 13.3816 38.4856 15.0837 37.5743C16.8436 36.6681 18.8021 36.2336 20.7736 36.312C22.6078 36.3899 24.3924 36.9404 25.9598 37.9117C27.1778 38.6525 28.2305 39.6432 29.0508 40.8203C30.5163 42.9378 30.8483 45.573 31.1402 48.0919C31.7464 53.6159 32.8091 59.0781 34.3172 64.4208Z" fill="url(#paint9_radial_7_6369)"/>
<path d="M34.3172 64.4208C35.5166 68.7059 37.1511 72.8526 39.1942 76.7941C40.1273 78.5393 41.0603 80.2844 42.7547 81.3839C43.0483 81.5713 43.3718 81.7052 43.7106 81.7794C46.2064 82.3205 47.5746 80.2786 48.4561 78.4113C49.7716 75.4815 50.8345 72.4413 51.6331 69.3248C51.7876 68.743 51.9364 68.1613 52.0852 67.5796C52.3714 66.4685 52.6577 65.3458 52.9038 64.223L63.9173 34.3225C66.205 31.2261 69.1709 28.7135 72.5796 26.9839C75.9884 25.2543 79.747 24.3551 83.557 24.3576C89.0437 24.3233 94.3782 26.1905 98.6805 29.6513C105.882 35.1893 110.169 46.0966 110.169 46.0966C110.794 47.5167 111.116 49.0551 111.114 50.6107C111.111 52.0515 110.829 53.4776 110.283 54.8075C109.738 56.1374 108.94 57.3452 107.935 58.3618C106.931 59.3785 105.739 60.184 104.428 60.7325C103.117 61.2811 101.713 61.5618 100.295 61.5588C98.7183 61.5577 97.1607 61.2044 95.7337 60.5238C94.306 59.8433 93.0433 58.8521 92.0347 57.6205L91.9316 57.4925C91.2396 56.543 90.6626 55.5116 90.2143 54.421C89.6207 53.0521 88.9556 51.7161 88.2223 50.4188C87.8331 49.7498 87.398 49.1157 86.9515 48.4874C86.5657 47.9258 86.1095 47.4175 85.5949 46.975C84.5817 46.1431 83.3052 45.8115 82.1145 46.527C82.0573 46.5605 82.0018 46.5974 81.9485 46.6376C80.7235 47.4927 79.8649 49.2204 79.2696 50.5467C77.5523 54.3047 76.5677 58.1557 75.5946 62.1114C75.4114 62.8735 75.2283 63.6355 75.0565 64.4034L70.5057 79.5282L64.089 93.9083C61.7917 96.9211 58.8517 99.3649 55.4904 101.056C52.1292 102.746 48.4342 103.641 44.6838 103.67C29.0966 104.007 21.7009 89.7083 21.7009 89.7083C12.8226 74.9093 10.2066 55.3867 9.58269 49.1448C9.45104 47.8475 9.44531 47.0739 9.44531 47.0739C9.44459 45.1187 9.9694 43.2005 10.9631 41.5264C11.9568 39.8522 13.3816 38.4856 15.0837 37.5743C16.8436 36.6681 18.8021 36.2336 20.7736 36.312C22.6078 36.3899 24.3924 36.9404 25.9598 37.9117C27.1778 38.6525 28.2305 39.6432 29.0508 40.8203C30.5163 42.9378 30.8483 45.573 31.1402 48.0919C31.7464 53.6159 32.8091 59.0781 34.3172 64.4208Z" fill="url(#paint10_radial_7_6369)"/>
<path d="M34.3172 64.4208C35.5166 68.7059 37.1511 72.8526 39.1942 76.7941C40.1273 78.5393 41.0603 80.2844 42.7547 81.3839C43.0483 81.5713 43.3718 81.7052 43.7106 81.7794C46.2064 82.3205 47.5746 80.2786 48.4561 78.4113C49.7716 75.4815 50.8345 72.4413 51.6331 69.3248C51.7876 68.743 51.9364 68.1613 52.0852 67.5796C52.3714 66.4685 52.6577 65.3458 52.9038 64.223L63.9173 34.3225C66.205 31.2261 69.1709 28.7135 72.5796 26.9839C75.9884 25.2543 79.747 24.3551 83.557 24.3576C89.0437 24.3233 94.3782 26.1905 98.6805 29.6513C105.882 35.1893 110.169 46.0966 110.169 46.0966C110.794 47.5167 111.116 49.0551 111.114 50.6107C111.111 52.0515 110.829 53.4776 110.283 54.8075C109.738 56.1374 108.94 57.3452 107.935 58.3618C106.931 59.3785 105.739 60.184 104.428 60.7325C103.117 61.2811 101.713 61.5618 100.295 61.5588C98.7183 61.5577 97.1607 61.2044 95.7337 60.5238C94.306 59.8433 93.0433 58.8521 92.0347 57.6205L91.9316 57.4925C91.2396 56.543 90.6626 55.5116 90.2143 54.421C89.6207 53.0521 88.9556 51.7161 88.2223 50.4188C87.8331 49.7498 87.398 49.1157 86.9515 48.4874C86.5657 47.9258 86.1095 47.4175 85.5949 46.975C84.5817 46.1431 83.3052 45.8115 82.1145 46.527C82.0573 46.5605 82.0018 46.5974 81.9485 46.6376C80.7235 47.4927 79.8649 49.2204 79.2696 50.5467C77.5523 54.3047 76.5677 58.1557 75.5946 62.1114C75.4114 62.8735 75.2283 63.6355 75.0565 64.4034L70.5057 79.5282L64.089 93.9083C61.7917 96.9211 58.8517 99.3649 55.4904 101.056C52.1292 102.746 48.4342 103.641 44.6838 103.67C29.0966 104.007 21.7009 89.7083 21.7009 89.7083C12.8226 74.9093 10.2066 55.3867 9.58269 49.1448C9.45104 47.8475 9.44531 47.0739 9.44531 47.0739C9.44459 45.1187 9.9694 43.2005 10.9631 41.5264C11.9568 39.8522 13.3816 38.4856 15.0837 37.5743C16.8436 36.6681 18.8021 36.2336 20.7736 36.312C22.6078 36.3899 24.3924 36.9404 25.9598 37.9117C27.1778 38.6525 28.2305 39.6432 29.0508 40.8203C30.5163 42.9378 30.8483 45.573 31.1402 48.0919C31.7464 53.6159 32.8091 59.0781 34.3172 64.4208Z" fill="url(#paint11_radial_7_6369)"/>
<path d="M34.3172 64.4208C35.5166 68.7059 37.1511 72.8526 39.1942 76.7941C40.1273 78.5393 41.0603 80.2844 42.7547 81.3839C43.0483 81.5713 43.3718 81.7052 43.7106 81.7794C46.2064 82.3205 47.5746 80.2786 48.4561 78.4113C49.7716 75.4815 50.8345 72.4413 51.6331 69.3248C51.7876 68.743 51.9364 68.1613 52.0852 67.5796C52.3714 66.4685 52.6577 65.3458 52.9038 64.223L63.9173 34.3225C66.205 31.2261 69.1709 28.7135 72.5796 26.9839C75.9884 25.2543 79.747 24.3551 83.557 24.3576C89.0437 24.3233 94.3782 26.1905 98.6805 29.6513C105.882 35.1893 110.169 46.0966 110.169 46.0966C110.794 47.5167 111.116 49.0551 111.114 50.6107C111.111 52.0515 110.829 53.4776 110.283 54.8075C109.738 56.1374 108.94 57.3452 107.935 58.3618C106.931 59.3785 105.739 60.184 104.428 60.7325C103.117 61.2811 101.713 61.5618 100.295 61.5588C98.7183 61.5577 97.1607 61.2044 95.7337 60.5238C94.306 59.8433 93.0433 58.8521 92.0347 57.6205L91.9316 57.4925C91.2396 56.543 90.6626 55.5116 90.2143 54.421C89.6207 53.0521 88.9556 51.7161 88.2223 50.4188C87.8331 49.7498 87.398 49.1157 86.9515 48.4874C86.5657 47.9258 86.1095 47.4175 85.5949 46.975C84.5817 46.1431 83.3052 45.8115 82.1145 46.527C82.0573 46.5605 82.0018 46.5974 81.9485 46.6376C80.7235 47.4927 79.8649 49.2204 79.2696 50.5467C77.5523 54.3047 76.5677 58.1557 75.5946 62.1114C75.4114 62.8735 75.2283 63.6355 75.0565 64.4034L70.5057 79.5282L64.089 93.9083C61.7917 96.9211 58.8517 99.3649 55.4904 101.056C52.1292 102.746 48.4342 103.641 44.6838 103.67C29.0966 104.007 21.7009 89.7083 21.7009 89.7083C12.8226 74.9093 10.2066 55.3867 9.58269 49.1448C9.45104 47.8475 9.44531 47.0739 9.44531 47.0739C9.44459 45.1187 9.9694 43.2005 10.9631 41.5264C11.9568 39.8522 13.3816 38.4856 15.0837 37.5743C16.8436 36.6681 18.8021 36.2336 20.7736 36.312C22.6078 36.3899 24.3924 36.9404 25.9598 37.9117C27.1778 38.6525 28.2305 39.6432 29.0508 40.8203C30.5163 42.9378 30.8483 45.573 31.1402 48.0919C31.7464 53.6159 32.8091 59.0781 34.3172 64.4208Z" fill="url(#paint12_radial_7_6369)"/>
<path d="M34.3172 64.4208C35.5166 68.7059 37.1511 72.8526 39.1942 76.7941C40.1273 78.5393 41.0603 80.2844 42.7547 81.3839C43.0483 81.5713 43.3718 81.7052 43.7106 81.7794C46.2064 82.3205 47.5746 80.2786 48.4561 78.4113C49.7716 75.4815 50.8345 72.4413 51.6331 69.3248C51.7876 68.743 51.9364 68.1613 52.0852 67.5796C52.3714 66.4685 52.6577 65.3458 52.9038 64.223L63.9173 34.3225C66.205 31.2261 69.1709 28.7135 72.5796 26.9839C75.9884 25.2543 79.747 24.3551 83.557 24.3576C89.0437 24.3233 94.3782 26.1905 98.6805 29.6513C105.882 35.1893 110.169 46.0966 110.169 46.0966C110.794 47.5167 111.116 49.0551 111.114 50.6107C111.111 52.0515 110.829 53.4776 110.283 54.8075C109.738 56.1374 108.94 57.3452 107.935 58.3618C106.931 59.3785 105.739 60.184 104.428 60.7325C103.117 61.2811 101.713 61.5618 100.295 61.5588C98.7183 61.5577 97.1607 61.2044 95.7337 60.5238C94.306 59.8433 93.0433 58.8521 92.0347 57.6205L91.9316 57.4925C91.2396 56.543 90.6626 55.5116 90.2143 54.421C89.6207 53.0521 88.9556 51.7161 88.2223 50.4188C87.8331 49.7498 87.398 49.1157 86.9515 48.4874C86.5657 47.9258 86.1095 47.4175 85.5949 46.975C84.5817 46.1431 83.3052 45.8115 82.1145 46.527C82.0573 46.5605 82.0018 46.5974 81.9485 46.6376C80.7235 47.4927 79.8649 49.2204 79.2696 50.5467C77.5523 54.3047 76.5677 58.1557 75.5946 62.1114C75.4114 62.8735 75.2283 63.6355 75.0565 64.4034L70.5057 79.5282L64.089 93.9083C61.7917 96.9211 58.8517 99.3649 55.4904 101.056C52.1292 102.746 48.4342 103.641 44.6838 103.67C29.0966 104.007 21.7009 89.7083 21.7009 89.7083C12.8226 74.9093 10.2066 55.3867 9.58269 49.1448C9.45104 47.8475 9.44531 47.0739 9.44531 47.0739C9.44459 45.1187 9.9694 43.2005 10.9631 41.5264C11.9568 39.8522 13.3816 38.4856 15.0837 37.5743C16.8436 36.6681 18.8021 36.2336 20.7736 36.312C22.6078 36.3899 24.3924 36.9404 25.9598 37.9117C27.1778 38.6525 28.2305 39.6432 29.0508 40.8203C30.5163 42.9378 30.8483 45.573 31.1402 48.0919C31.7464 53.6159 32.8091 59.0781 34.3172 64.4208Z" fill="url(#paint13_radial_7_6369)"/>
<path d="M34.3172 64.4208C35.5166 68.7059 37.1511 72.8526 39.1942 76.7941C40.1273 78.5393 41.0603 80.2844 42.7547 81.3839C43.0483 81.5713 43.3718 81.7052 43.7106 81.7794C46.2064 82.3205 47.5746 80.2786 48.4561 78.4113C49.7716 75.4815 50.8345 72.4413 51.6331 69.3248C51.7876 68.743 51.9364 68.1613 52.0852 67.5796C52.3714 66.4685 52.6577 65.3458 52.9038 64.223L63.9173 34.3225C66.205 31.2261 69.1709 28.7135 72.5796 26.9839C75.9884 25.2543 79.747 24.3551 83.557 24.3576C89.0437 24.3233 94.3782 26.1905 98.6805 29.6513C105.882 35.1893 110.169 46.0966 110.169 46.0966C110.794 47.5167 111.116 49.0551 111.114 50.6107C111.111 52.0515 110.829 53.4776 110.283 54.8075C109.738 56.1374 108.94 57.3452 107.935 58.3618C106.931 59.3785 105.739 60.184 104.428 60.7325C103.117 61.2811 101.713 61.5618 100.295 61.5588C98.7183 61.5577 97.1607 61.2044 95.7337 60.5238C94.306 59.8433 93.0433 58.8521 92.0347 57.6205L91.9316 57.4925C91.2396 56.543 90.6626 55.5116 90.2143 54.421C89.6207 53.0521 88.9556 51.7161 88.2223 50.4188C87.8331 49.7498 87.398 49.1157 86.9515 48.4874C86.5657 47.9258 86.1095 47.4175 85.5949 46.975C84.5817 46.1431 83.3052 45.8115 82.1145 46.527C82.0573 46.5605 82.0018 46.5974 81.9485 46.6376C80.7235 47.4927 79.8649 49.2204 79.2696 50.5467C77.5523 54.3047 76.5677 58.1557 75.5946 62.1114C75.4114 62.8735 75.2283 63.6355 75.0565 64.4034L70.5057 79.5282L64.089 93.9083C61.7917 96.9211 58.8517 99.3649 55.4904 101.056C52.1292 102.746 48.4342 103.641 44.6838 103.67C29.0966 104.007 21.7009 89.7083 21.7009 89.7083C12.8226 74.9093 10.2066 55.3867 9.58269 49.1448C9.45104 47.8475 9.44531 47.0739 9.44531 47.0739C9.44459 45.1187 9.9694 43.2005 10.9631 41.5264C11.9568 39.8522 13.3816 38.4856 15.0837 37.5743C16.8436 36.6681 18.8021 36.2336 20.7736 36.312C22.6078 36.3899 24.3924 36.9404 25.9598 37.9117C27.1778 38.6525 28.2305 39.6432 29.0508 40.8203C30.5163 42.9378 30.8483 45.573 31.1402 48.0919C31.7464 53.6159 32.8091 59.0781 34.3172 64.4208Z" fill="url(#paint14_radial_7_6369)"/>
<path d="M34.3172 64.4208C35.5166 68.7059 37.1511 72.8526 39.1942 76.7941C40.1273 78.5393 41.0603 80.2844 42.7547 81.3839C43.0483 81.5713 43.3718 81.7052 43.7106 81.7794C46.2064 82.3205 47.5746 80.2786 48.4561 78.4113C49.7716 75.4815 50.8345 72.4413 51.6331 69.3248C51.7876 68.743 51.9364 68.1613 52.0852 67.5796C52.3714 66.4685 52.6577 65.3458 52.9038 64.223L63.9173 34.3225C66.205 31.2261 69.1709 28.7135 72.5796 26.9839C75.9884 25.2543 79.747 24.3551 83.557 24.3576C89.0437 24.3233 94.3782 26.1905 98.6805 29.6513C105.882 35.1893 110.169 46.0966 110.169 46.0966C110.794 47.5167 111.116 49.0551 111.114 50.6107C111.111 52.0515 110.829 53.4776 110.283 54.8075C109.738 56.1374 108.94 57.3452 107.935 58.3618C106.931 59.3785 105.739 60.184 104.428 60.7325C103.117 61.2811 101.713 61.5618 100.295 61.5588C98.7183 61.5577 97.1607 61.2044 95.7337 60.5238C94.306 59.8433 93.0433 58.8521 92.0347 57.6205L91.9316 57.4925C91.2396 56.543 90.6626 55.5116 90.2143 54.421C89.6207 53.0521 88.9556 51.7161 88.2223 50.4188C87.8331 49.7498 87.398 49.1157 86.9515 48.4874C86.5657 47.9258 86.1095 47.4175 85.5949 46.975C84.5817 46.1431 83.3052 45.8115 82.1145 46.527C82.0573 46.5605 82.0018 46.5974 81.9485 46.6376C80.7235 47.4927 79.8649 49.2204 79.2696 50.5467C77.5523 54.3047 76.5677 58.1557 75.5946 62.1114C75.4114 62.8735 75.2283 63.6355 75.0565 64.4034L70.5057 79.5282L64.089 93.9083C61.7917 96.9211 58.8517 99.3649 55.4904 101.056C52.1292 102.746 48.4342 103.641 44.6838 103.67C29.0966 104.007 21.7009 89.7083 21.7009 89.7083C12.8226 74.9093 10.2066 55.3867 9.58269 49.1448C9.45104 47.8475 9.44531 47.0739 9.44531 47.0739C9.44459 45.1187 9.9694 43.2005 10.9631 41.5264C11.9568 39.8522 13.3816 38.4856 15.0837 37.5743C16.8436 36.6681 18.8021 36.2336 20.7736 36.312C22.6078 36.3899 24.3924 36.9404 25.9598 37.9117C27.1778 38.6525 28.2305 39.6432 29.0508 40.8203C30.5163 42.9378 30.8483 45.573 31.1402 48.0919C31.7464 53.6159 32.8091 59.0781 34.3172 64.4208Z" fill="url(#paint15_radial_7_6369)"/>
<path d="M34.3172 64.4208C35.5166 68.7059 37.1511 72.8526 39.1942 76.7941C40.1273 78.5393 41.0603 80.2844 42.7547 81.3839C43.0483 81.5713 43.3718 81.7052 43.7106 81.7794C46.2064 82.3205 47.5746 80.2786 48.4561 78.4113C49.7716 75.4815 50.8345 72.4413 51.6331 69.3248C51.7876 68.743 51.9364 68.1613 52.0852 67.5796C52.3714 66.4685 52.6577 65.3458 52.9038 64.223L63.9173 34.3225C66.205 31.2261 69.1709 28.7135 72.5796 26.9839C75.9884 25.2543 79.747 24.3551 83.557 24.3576C89.0437 24.3233 94.3782 26.1905 98.6805 29.6513C105.882 35.1893 110.169 46.0966 110.169 46.0966C110.794 47.5167 111.116 49.0551 111.114 50.6107C111.111 52.0515 110.829 53.4776 110.283 54.8075C109.738 56.1374 108.94 57.3452 107.935 58.3618C106.931 59.3785 105.739 60.184 104.428 60.7325C103.117 61.2811 101.713 61.5618 100.295 61.5588C98.7183 61.5577 97.1607 61.2044 95.7337 60.5238C94.306 59.8433 93.0433 58.8521 92.0347 57.6205L91.9316 57.4925C91.2396 56.543 90.6626 55.5116 90.2143 54.421C89.6207 53.0521 88.9556 51.7161 88.2223 50.4188C87.8331 49.7498 87.398 49.1157 86.9515 48.4874C86.5657 47.9258 86.1095 47.4175 85.5949 46.975C84.5817 46.1431 83.3052 45.8115 82.1145 46.527C82.0573 46.5605 82.0018 46.5974 81.9485 46.6376C80.7235 47.4927 79.8649 49.2204 79.2696 50.5467C77.5523 54.3047 76.5677 58.1557 75.5946 62.1114C75.4114 62.8735 75.2283 63.6355 75.0565 64.4034L70.5057 79.5282L64.089 93.9083C61.7917 96.9211 58.8517 99.3649 55.4904 101.056C52.1292 102.746 48.4342 103.641 44.6838 103.67C29.0966 104.007 21.7009 89.7083 21.7009 89.7083C12.8226 74.9093 10.2066 55.3867 9.58269 49.1448C9.45104 47.8475 9.44531 47.0739 9.44531 47.0739C9.44459 45.1187 9.9694 43.2005 10.9631 41.5264C11.9568 39.8522 13.3816 38.4856 15.0837 37.5743C16.8436 36.6681 18.8021 36.2336 20.7736 36.312C22.6078 36.3899 24.3924 36.9404 25.9598 37.9117C27.1778 38.6525 28.2305 39.6432 29.0508 40.8203C30.5163 42.9378 30.8483 45.573 31.1402 48.0919C31.7464 53.6159 32.8091 59.0781 34.3172 64.4208Z" fill="url(#paint16_linear_7_6369)"/>
<path d="M34.3172 64.4208C35.5166 68.7059 37.1511 72.8526 39.1942 76.7941C40.1273 78.5393 41.0603 80.2844 42.7547 81.3839C43.0483 81.5713 43.3718 81.7052 43.7106 81.7794C46.2064 82.3205 47.5746 80.2786 48.4561 78.4113C49.7716 75.4815 50.8345 72.4413 51.6331 69.3248C51.7876 68.743 51.9364 68.1613 52.0852 67.5796C52.3714 66.4685 52.6577 65.3458 52.9038 64.223L63.9173 34.3225C66.205 31.2261 69.1709 28.7135 72.5796 26.9839C75.9884 25.2543 79.747 24.3551 83.557 24.3576C89.0437 24.3233 94.3782 26.1905 98.6805 29.6513C105.882 35.1893 110.169 46.0966 110.169 46.0966C110.794 47.5167 111.116 49.0551 111.114 50.6107C111.111 52.0515 110.829 53.4776 110.283 54.8075C109.738 56.1374 108.94 57.3452 107.935 58.3618C106.931 59.3785 105.739 60.184 104.428 60.7325C103.117 61.2811 101.713 61.5618 100.295 61.5588C98.7183 61.5577 97.1607 61.2044 95.7337 60.5238C94.306 59.8433 93.0433 58.8521 92.0347 57.6205L91.9316 57.4925C91.2396 56.543 90.6626 55.5116 90.2143 54.421C89.6207 53.0521 88.9556 51.7161 88.2223 50.4188C87.8331 49.7498 87.398 49.1157 86.9515 48.4874C86.5657 47.9258 86.1095 47.4175 85.5949 46.975C84.5817 46.1431 83.3052 45.8115 82.1145 46.527C82.0573 46.5605 82.0018 46.5974 81.9485 46.6376C80.7235 47.4927 79.8649 49.2204 79.2696 50.5467C77.5523 54.3047 76.5677 58.1557 75.5946 62.1114C75.4114 62.8735 75.2283 63.6355 75.0565 64.4034L70.5057 79.5282L64.089 93.9083C61.7917 96.9211 58.8517 99.3649 55.4904 101.056C52.1292 102.746 48.4342 103.641 44.6838 103.67C29.0966 104.007 21.7009 89.7083 21.7009 89.7083C12.8226 74.9093 10.2066 55.3867 9.58269 49.1448C9.45104 47.8475 9.44531 47.0739 9.44531 47.0739C9.44459 45.1187 9.9694 43.2005 10.9631 41.5264C11.9568 39.8522 13.3816 38.4856 15.0837 37.5743C16.8436 36.6681 18.8021 36.2336 20.7736 36.312C22.6078 36.3899 24.3924 36.9404 25.9598 37.9117C27.1778 38.6525 28.2305 39.6432 29.0508 40.8203C30.5163 42.9378 30.8483 45.573 31.1402 48.0919C31.7464 53.6159 32.8091 59.0781 34.3172 64.4208Z" fill="url(#paint17_linear_7_6369)"/>
<path d="M34.3172 64.4208C35.5166 68.7059 37.1511 72.8526 39.1942 76.7941C40.1273 78.5393 41.0603 80.2844 42.7547 81.3839C43.0483 81.5713 43.3718 81.7052 43.7106 81.7794C46.2064 82.3205 47.5746 80.2786 48.4561 78.4113C49.7716 75.4815 50.8345 72.4413 51.6331 69.3248C51.7876 68.743 51.9364 68.1613 52.0852 67.5796C52.3714 66.4685 52.6577 65.3458 52.9038 64.223L63.9173 34.3225C66.205 31.2261 69.1709 28.7135 72.5796 26.9839C75.9884 25.2543 79.747 24.3551 83.557 24.3576C89.0437 24.3233 94.3782 26.1905 98.6805 29.6513C105.882 35.1893 110.169 46.0966 110.169 46.0966C110.794 47.5167 111.116 49.0551 111.114 50.6107C111.111 52.0515 110.829 53.4776 110.283 54.8075C109.738 56.1374 108.94 57.3452 107.935 58.3618C106.931 59.3785 105.739 60.184 104.428 60.7325C103.117 61.2811 101.713 61.5618 100.295 61.5588C98.7183 61.5577 97.1607 61.2044 95.7337 60.5238C94.306 59.8433 93.0433 58.8521 92.0347 57.6205L91.9316 57.4925C91.2396 56.543 90.6626 55.5116 90.2143 54.421C89.6207 53.0521 88.9556 51.7161 88.2223 50.4188C87.8331 49.7498 87.398 49.1157 86.9515 48.4874C86.5657 47.9258 86.1095 47.4175 85.5949 46.975C84.5817 46.1431 83.3052 45.8115 82.1145 46.527C82.0573 46.5605 82.0018 46.5974 81.9485 46.6376C80.7235 47.4927 79.8649 49.2204 79.2696 50.5467C77.5523 54.3047 76.5677 58.1557 75.5946 62.1114C75.4114 62.8735 75.2283 63.6355 75.0565 64.4034L70.5057 79.5282L64.089 93.9083C61.7917 96.9211 58.8517 99.3649 55.4904 101.056C52.1292 102.746 48.4342 103.641 44.6838 103.67C29.0966 104.007 21.7009 89.7083 21.7009 89.7083C12.8226 74.9093 10.2066 55.3867 9.58269 49.1448C9.45104 47.8475 9.44531 47.0739 9.44531 47.0739C9.44459 45.1187 9.9694 43.2005 10.9631 41.5264C11.9568 39.8522 13.3816 38.4856 15.0837 37.5743C16.8436 36.6681 18.8021 36.2336 20.7736 36.312C22.6078 36.3899 24.3924 36.9404 25.9598 37.9117C27.1778 38.6525 28.2305 39.6432 29.0508 40.8203C30.5163 42.9378 30.8483 45.573 31.1402 48.0919C31.7464 53.6159 32.8091 59.0781 34.3172 64.4208Z" fill="url(#paint18_linear_7_6369)"/>
<path d="M34.3172 64.4208C35.5166 68.7059 37.1511 72.8526 39.1942 76.7941C40.1273 78.5393 41.0603 80.2844 42.7547 81.3839C43.0483 81.5713 43.3718 81.7052 43.7106 81.7794C46.2064 82.3205 47.5746 80.2786 48.4561 78.4113C49.7716 75.4815 50.8345 72.4413 51.6331 69.3248C51.7876 68.743 51.9364 68.1613 52.0852 67.5796C52.3714 66.4685 52.6577 65.3458 52.9038 64.223L63.9173 34.3225C66.205 31.2261 69.1709 28.7135 72.5796 26.9839C75.9884 25.2543 79.747 24.3551 83.557 24.3576C89.0437 24.3233 94.3782 26.1905 98.6805 29.6513C105.882 35.1893 110.169 46.0966 110.169 46.0966C110.794 47.5167 111.116 49.0551 111.114 50.6107C111.111 52.0515 110.829 53.4776 110.283 54.8075C109.738 56.1374 108.94 57.3452 107.935 58.3618C106.931 59.3785 105.739 60.184 104.428 60.7325C103.117 61.2811 101.713 61.5618 100.295 61.5588C98.7183 61.5577 97.1607 61.2044 95.7337 60.5238C94.306 59.8433 93.0433 58.8521 92.0347 57.6205L91.9316 57.4925C91.2396 56.543 90.6626 55.5116 90.2143 54.421C89.6207 53.0521 88.9556 51.7161 88.2223 50.4188C87.8331 49.7498 87.398 49.1157 86.9515 48.4874C86.5657 47.9258 86.1095 47.4175 85.5949 46.975C84.5817 46.1431 83.3052 45.8115 82.1145 46.527C82.0573 46.5605 82.0018 46.5974 81.9485 46.6376C80.7235 47.4927 79.8649 49.2204 79.2696 50.5467C77.5523 54.3047 76.5677 58.1557 75.5946 62.1114C75.4114 62.8735 75.2283 63.6355 75.0565 64.4034L70.5057 79.5282L64.089 93.9083C61.7917 96.9211 58.8517 99.3649 55.4904 101.056C52.1292 102.746 48.4342 103.641 44.6838 103.67C29.0966 104.007 21.7009 89.7083 21.7009 89.7083C12.8226 74.9093 10.2066 55.3867 9.58269 49.1448C9.45104 47.8475 9.44531 47.0739 9.44531 47.0739C9.44459 45.1187 9.9694 43.2005 10.9631 41.5264C11.9568 39.8522 13.3816 38.4856 15.0837 37.5743C16.8436 36.6681 18.8021 36.2336 20.7736 36.312C22.6078 36.3899 24.3924 36.9404 25.9598 37.9117C27.1778 38.6525 28.2305 39.6432 29.0508 40.8203C30.5163 42.9378 30.8483 45.573 31.1402 48.0919C31.7464 53.6159 32.8091 59.0781 34.3172 64.4208Z" fill="url(#paint19_linear_7_6369)"/>
<path d="M56.9165 53.3275L63.9173 34.3285C66.205 31.2321 69.171 28.7195 72.5798 26.9899C75.9886 25.2603 79.7472 24.3611 83.5572 24.3636C89.0439 24.3292 94.3784 26.1965 98.6807 29.6572C105.882 35.1952 110.169 46.1025 110.169 46.1025C110.794 47.5226 111.116 49.0611 111.114 50.6167C111.111 52.0575 110.829 53.4836 110.283 54.8135C109.738 56.1434 108.94 57.3512 107.936 58.3678C106.931 59.3844 105.739 60.19 104.428 60.7385C103.117 61.2871 101.713 61.5678 100.295 61.5647C98.7185 61.5637 97.1609 61.2104 95.7338 60.5298C94.3062 59.8492 93.0435 58.858 92.0348 57.6265L91.9318 57.4985C91.2392 56.5489 90.6627 55.5176 90.2145 54.427C89.6203 53.058 88.9558 51.7221 88.2225 50.4247C87.8332 49.7558 87.3982 49.1217 86.9517 48.4934C86.5659 47.9318 86.1097 47.4235 85.5951 46.9809C84.5819 46.1491 83.3054 45.8175 82.1147 46.533C82.0575 46.5665 82.0019 46.6034 81.9487 46.6435C80.7237 47.4987 79.8651 49.2264 79.2698 50.5527C77.5525 54.3107 76.5679 58.1617 75.5948 62.1174C75.4116 62.8794 75.2284 63.6415 75.0567 64.4094L70.5059 79.5342L56.9165 53.3275Z" fill="url(#paint20_linear_7_6369)"/>
<path d="M107.776 36.3587C106.867 36.3567 105.961 36.472 105.08 36.702C107.088 39.6506 108.793 42.8006 110.169 46.1026C110.794 47.5227 111.116 49.0612 111.113 50.6168C111.111 52.0576 110.828 53.4836 110.283 54.8136C109.737 56.1435 108.94 57.3513 107.935 58.3679C106.931 59.3845 105.739 60.1901 104.428 60.7386C103.117 61.2871 101.712 61.5679 100.295 61.5648C98.3781 61.5611 96.4971 61.0391 94.8451 60.0523L93.7346 64.2233C91.7197 71.0702 90.3001 73.717 90.3001 73.717C89.5181 75.5733 88.5874 77.3613 87.5181 79.063C86.7797 80.1741 85.8351 81.291 84.5415 81.7157C84.0915 81.875 83.6107 81.9228 83.139 81.8553C82.6284 81.7924 82.1356 81.6242 81.6908 81.3608C80.8402 80.7107 80.1636 79.8549 79.7217 78.8711C79.1744 77.7789 78.6833 76.6586 78.2505 75.5145C77.2946 73.1527 75.8177 67.3355 75.8177 67.3355L74.2893 61.2449L72.761 55.1077L71.6734 51.0763C68.8112 40.5762 64.85 35.4105 64.85 35.4105C61.7366 30.8989 57.3256 27.477 52.2223 25.6143C46.3034 23.4561 40.0926 24.6719 40.0926 24.6719C30.3614 26.6149 25.2496 33.3978 23 36.6612C24.0296 36.9345 25.0149 37.3577 25.9251 37.9178C27.1431 38.6586 28.1958 39.6492 29.0162 40.8264C30.4816 42.9438 30.8136 45.579 31.1055 48.0979C31.7196 53.5571 32.7804 58.9548 34.2768 64.2349C37.5739 53.124 41.5294 47.9467 41.5294 47.9467C41.9714 47.3886 42.5014 46.909 43.0978 46.5273C43.4083 46.3336 43.7556 46.2087 44.1168 46.1608C44.7863 46.0954 45.4578 46.2614 46.0229 46.632C46.1264 46.7012 46.2241 46.779 46.3149 46.8647C46.8319 47.3306 47.2759 47.8739 47.6314 48.476C48.4549 49.9718 49.1685 51.5273 49.7666 53.1298C51.003 56.6667 52.0563 60.9889 52.0563 60.9889L55.2046 73.6007C57.4943 82.1753 59.4349 86.3404 59.4349 86.3404C64.2146 97.4629 71.5245 100.593 71.5245 100.593C75.0833 102.527 79.041 103.579 83.0761 103.664C86.9279 103.771 90.7483 102.935 94.2155 101.227C98.0169 99.3268 101.352 96.5857 103.975 93.2047C105.744 91.1222 108.349 86.0495 108.349 86.0495C111.22 80.234 113.475 74.1245 115.075 67.8241C116.096 63.899 116.916 59.9224 117.53 55.9105C117.839 53.921 118.131 51.9198 118.366 49.9129C118.659 48.0125 118.6 46.0733 118.194 44.1945C118.109 43.8568 118.004 43.5246 117.879 43.1998C116.96 40.8422 115.254 38.8882 113.06 37.6792C111.433 36.8007 109.618 36.3469 107.776 36.3587Z" fill="url(#paint21_linear_7_6369)"/>
<path d="M107.776 36.3587C106.867 36.3567 105.961 36.472 105.08 36.702C107.088 39.6506 108.793 42.8006 110.169 46.1026C110.794 47.5227 111.116 49.0612 111.113 50.6168C111.111 52.0576 110.828 53.4836 110.283 54.8136C109.737 56.1435 108.94 57.3513 107.935 58.3679C106.931 59.3845 105.739 60.1901 104.428 60.7386C103.117 61.2871 101.712 61.5679 100.295 61.5648C98.3781 61.5611 96.4971 61.0391 94.8451 60.0523L93.7346 64.2233C91.7197 71.0702 90.3001 73.717 90.3001 73.717C89.5181 75.5733 88.5874 77.3613 87.5181 79.063C86.7797 80.1741 85.8351 81.291 84.5415 81.7157C84.0915 81.875 83.6107 81.9228 83.139 81.8553C82.6284 81.7924 82.1356 81.6242 81.6908 81.3608C80.8402 80.7107 80.1636 79.8549 79.7217 78.8711C79.1744 77.7789 78.6833 76.6586 78.2505 75.5145C77.2946 73.1527 75.8177 67.3355 75.8177 67.3355L74.2893 61.2449L72.761 55.1077L71.6734 51.0763C68.8112 40.5762 64.85 35.4105 64.85 35.4105C61.7366 30.8989 57.3256 27.477 52.2223 25.6143C46.3034 23.4561 40.0926 24.6719 40.0926 24.6719C30.3614 26.6149 25.2496 33.3978 23 36.6612C24.0296 36.9345 25.0149 37.3577 25.9251 37.9178C27.1431 38.6586 28.1958 39.6492 29.0162 40.8264C30.4816 42.9438 30.8136 45.579 31.1055 48.0979C31.7196 53.5571 32.7804 58.9548 34.2768 64.2349C37.5739 53.124 41.5294 47.9467 41.5294 47.9467C41.9714 47.3886 42.5014 46.909 43.0978 46.5273C43.4083 46.3336 43.7556 46.2087 44.1168 46.1608C44.7863 46.0954 45.4578 46.2614 46.0229 46.632C46.1264 46.7012 46.2241 46.779 46.3149 46.8647C46.8319 47.3306 47.2759 47.8739 47.6314 48.476C48.4549 49.9718 49.1685 51.5273 49.7666 53.1298C51.003 56.6667 52.0563 60.9889 52.0563 60.9889L55.2046 73.6007C57.4943 82.1753 59.4349 86.3404 59.4349 86.3404C64.2146 97.4629 71.5245 100.593 71.5245 100.593C75.0833 102.527 79.041 103.579 83.0761 103.664C86.9279 103.771 90.7483 102.935 94.2155 101.227C98.0169 99.3268 101.352 96.5857 103.975 93.2047C105.744 91.1222 108.349 86.0495 108.349 86.0495C111.22 80.234 113.475 74.1245 115.075 67.8241C116.096 63.899 116.916 59.9224 117.53 55.9105C117.839 53.921 118.131 51.9198 118.366 49.9129C118.659 48.0125 118.6 46.0733 118.194 44.1945C118.109 43.8568 118.004 43.5246 117.879 43.1998C116.96 40.8422 115.254 38.8882 113.06 37.6792C111.433 36.8007 109.618 36.3469 107.776 36.3587Z" fill="url(#paint22_radial_7_6369)"/>
<path d="M107.776 36.3587C106.867 36.3567 105.961 36.472 105.08 36.702C107.088 39.6506 108.793 42.8006 110.169 46.1026C110.794 47.5227 111.116 49.0612 111.113 50.6168C111.111 52.0576 110.828 53.4836 110.283 54.8136C109.737 56.1435 108.94 57.3513 107.935 58.3679C106.931 59.3845 105.739 60.1901 104.428 60.7386C103.117 61.2871 101.712 61.5679 100.295 61.5648C98.3781 61.5611 96.4971 61.0391 94.8451 60.0523L93.7346 64.2233C91.7197 71.0702 90.3001 73.717 90.3001 73.717C89.5181 75.5733 88.5874 77.3613 87.5181 79.063C86.7797 80.1741 85.8351 81.291 84.5415 81.7157C84.0915 81.875 83.6107 81.9228 83.139 81.8553C82.6284 81.7924 82.1356 81.6242 81.6908 81.3608C80.8402 80.7107 80.1636 79.8549 79.7217 78.8711C79.1744 77.7789 78.6833 76.6586 78.2505 75.5145C77.2946 73.1527 75.8177 67.3355 75.8177 67.3355L74.2893 61.2449L72.761 55.1077L71.6734 51.0763C68.8112 40.5762 64.85 35.4105 64.85 35.4105C61.7366 30.8989 57.3256 27.477 52.2223 25.6143C46.3034 23.4561 40.0926 24.6719 40.0926 24.6719C30.3614 26.6149 25.2496 33.3978 23 36.6612C24.0296 36.9345 25.0149 37.3577 25.9251 37.9178C27.1431 38.6586 28.1958 39.6492 29.0162 40.8264C30.4816 42.9438 30.8136 45.579 31.1055 48.0979C31.7196 53.5571 32.7804 58.9548 34.2768 64.2349C37.5739 53.124 41.5294 47.9467 41.5294 47.9467C41.9714 47.3886 42.5014 46.909 43.0978 46.5273C43.4083 46.3336 43.7556 46.2087 44.1168 46.1608C44.7863 46.0954 45.4578 46.2614 46.0229 46.632C46.1264 46.7012 46.2241 46.779 46.3149 46.8647C46.8319 47.3306 47.2759 47.8739 47.6314 48.476C48.4549 49.9718 49.1685 51.5273 49.7666 53.1298C51.003 56.6667 52.0563 60.9889 52.0563 60.9889L55.2046 73.6007C57.4943 82.1753 59.4349 86.3404 59.4349 86.3404C64.2146 97.4629 71.5245 100.593 71.5245 100.593C75.0833 102.527 79.041 103.579 83.0761 103.664C86.9279 103.771 90.7483 102.935 94.2155 101.227C98.0169 99.3268 101.352 96.5857 103.975 93.2047C105.744 91.1222 108.349 86.0495 108.349 86.0495C111.22 80.234 113.475 74.1245 115.075 67.8241C116.096 63.899 116.916 59.9224 117.53 55.9105C117.839 53.921 118.131 51.9198 118.366 49.9129C118.659 48.0125 118.6 46.0733 118.194 44.1945C118.109 43.8568 118.004 43.5246 117.879 43.1998C116.96 40.8422 115.254 38.8882 113.06 37.6792C111.433 36.8007 109.618 36.3469 107.776 36.3587Z" fill="url(#paint23_radial_7_6369)"/>
<path d="M107.776 36.3587C106.867 36.3567 105.961 36.472 105.08 36.702C107.088 39.6506 108.793 42.8006 110.169 46.1026C110.794 47.5227 111.116 49.0612 111.113 50.6168C111.111 52.0576 110.828 53.4836 110.283 54.8136C109.737 56.1435 108.94 57.3513 107.935 58.3679C106.931 59.3845 105.739 60.1901 104.428 60.7386C103.117 61.2871 101.712 61.5679 100.295 61.5648C98.3781 61.5611 96.4971 61.0391 94.8451 60.0523L93.7346 64.2233C91.7197 71.0702 90.3001 73.717 90.3001 73.717C89.5181 75.5733 88.5874 77.3613 87.5181 79.063C86.7797 80.1741 85.8351 81.291 84.5415 81.7157C84.0915 81.875 83.6107 81.9228 83.139 81.8553C82.6284 81.7924 82.1356 81.6242 81.6908 81.3608C80.8402 80.7107 80.1636 79.8549 79.7217 78.8711C79.1744 77.7789 78.6833 76.6586 78.2505 75.5145C77.2946 73.1527 75.8177 67.3355 75.8177 67.3355L74.2893 61.2449L72.761 55.1077L71.6734 51.0763C68.8112 40.5762 64.85 35.4105 64.85 35.4105C61.7366 30.8989 57.3256 27.477 52.2223 25.6143C46.3034 23.4561 40.0926 24.6719 40.0926 24.6719C30.3614 26.6149 25.2496 33.3978 23 36.6612C24.0296 36.9345 25.0149 37.3577 25.9251 37.9178C27.1431 38.6586 28.1958 39.6492 29.0162 40.8264C30.4816 42.9438 30.8136 45.579 31.1055 48.0979C31.7196 53.5571 32.7804 58.9548 34.2768 64.2349C37.5739 53.124 41.5294 47.9467 41.5294 47.9467C41.9714 47.3886 42.5014 46.909 43.0978 46.5273C43.4083 46.3336 43.7556 46.2087 44.1168 46.1608C44.7863 46.0954 45.4578 46.2614 46.0229 46.632C46.1264 46.7012 46.2241 46.779 46.3149 46.8647C46.8319 47.3306 47.2759 47.8739 47.6314 48.476C48.4549 49.9718 49.1685 51.5273 49.7666 53.1298C51.003 56.6667 52.0563 60.9889 52.0563 60.9889L55.2046 73.6007C57.4943 82.1753 59.4349 86.3404 59.4349 86.3404C64.2146 97.4629 71.5245 100.593 71.5245 100.593C75.0833 102.527 79.041 103.579 83.0761 103.664C86.9279 103.771 90.7483 102.935 94.2155 101.227C98.0169 99.3268 101.352 96.5857 103.975 93.2047C105.744 91.1222 108.349 86.0495 108.349 86.0495C111.22 80.234 113.475 74.1245 115.075 67.8241C116.096 63.899 116.916 59.9224 117.53 55.9105C117.839 53.921 118.131 51.9198 118.366 49.9129C118.659 48.0125 118.6 46.0733 118.194 44.1945C118.109 43.8568 118.004 43.5246 117.879 43.1998C116.96 40.8422 115.254 38.8882 113.06 37.6792C111.433 36.8007 109.618 36.3469 107.776 36.3587Z" fill="url(#paint24_radial_7_6369)"/>
<path d="M107.776 36.3587C106.867 36.3567 105.961 36.472 105.08 36.702C107.088 39.6506 108.793 42.8006 110.169 46.1026C110.794 47.5227 111.116 49.0612 111.113 50.6168C111.111 52.0576 110.828 53.4836 110.283 54.8136C109.737 56.1435 108.94 57.3513 107.935 58.3679C106.931 59.3845 105.739 60.1901 104.428 60.7386C103.117 61.2871 101.712 61.5679 100.295 61.5648C98.3781 61.5611 96.4971 61.0391 94.8451 60.0523L93.7346 64.2233C91.7197 71.0702 90.3001 73.717 90.3001 73.717C89.5181 75.5733 88.5874 77.3613 87.5181 79.063C86.7797 80.1741 85.8351 81.291 84.5415 81.7157C84.0915 81.875 83.6107 81.9228 83.139 81.8553C82.6284 81.7924 82.1356 81.6242 81.6908 81.3608C80.8402 80.7107 80.1636 79.8549 79.7217 78.8711C79.1744 77.7789 78.6833 76.6586 78.2505 75.5145C77.2946 73.1527 75.8177 67.3355 75.8177 67.3355L74.2893 61.2449L72.761 55.1077L71.6734 51.0763C68.8112 40.5762 64.85 35.4105 64.85 35.4105C61.7366 30.8989 57.3256 27.477 52.2223 25.6143C46.3034 23.4561 40.0926 24.6719 40.0926 24.6719C30.3614 26.6149 25.2496 33.3978 23 36.6612C24.0296 36.9345 25.0149 37.3577 25.9251 37.9178C27.1431 38.6586 28.1958 39.6492 29.0162 40.8264C30.4816 42.9438 30.8136 45.579 31.1055 48.0979C31.7196 53.5571 32.7804 58.9548 34.2768 64.2349C37.5739 53.124 41.5294 47.9467 41.5294 47.9467C41.9714 47.3886 42.5014 46.909 43.0978 46.5273C43.4083 46.3336 43.7556 46.2087 44.1168 46.1608C44.7863 46.0954 45.4578 46.2614 46.0229 46.632C46.1264 46.7012 46.2241 46.779 46.3149 46.8647C46.8319 47.3306 47.2759 47.8739 47.6314 48.476C48.4549 49.9718 49.1685 51.5273 49.7666 53.1298C51.003 56.6667 52.0563 60.9889 52.0563 60.9889L55.2046 73.6007C57.4943 82.1753 59.4349 86.3404 59.4349 86.3404C64.2146 97.4629 71.5245 100.593 71.5245 100.593C75.0833 102.527 79.041 103.579 83.0761 103.664C86.9279 103.771 90.7483 102.935 94.2155 101.227C98.0169 99.3268 101.352 96.5857 103.975 93.2047C105.744 91.1222 108.349 86.0495 108.349 86.0495C111.22 80.234 113.475 74.1245 115.075 67.8241C116.096 63.899 116.916 59.9224 117.53 55.9105C117.839 53.921 118.131 51.9198 118.366 49.9129C118.659 48.0125 118.6 46.0733 118.194 44.1945C118.109 43.8568 118.004 43.5246 117.879 43.1998C116.96 40.8422 115.254 38.8882 113.06 37.6792C111.433 36.8007 109.618 36.3469 107.776 36.3587Z" fill="url(#paint25_radial_7_6369)"/>
<path d="M107.776 36.3587C106.867 36.3567 105.961 36.472 105.08 36.702C107.088 39.6506 108.793 42.8006 110.169 46.1026C110.794 47.5227 111.116 49.0612 111.113 50.6168C111.111 52.0576 110.828 53.4836 110.283 54.8136C109.737 56.1435 108.94 57.3513 107.935 58.3679C106.931 59.3845 105.739 60.1901 104.428 60.7386C103.117 61.2871 101.712 61.5679 100.295 61.5648C98.3781 61.5611 96.4971 61.0391 94.8451 60.0523L93.7346 64.2233C91.7197 71.0702 90.3001 73.717 90.3001 73.717C89.5181 75.5733 88.5874 77.3613 87.5181 79.063C86.7797 80.1741 85.8351 81.291 84.5415 81.7157C84.0915 81.875 83.6107 81.9228 83.139 81.8553C82.6284 81.7924 82.1356 81.6242 81.6908 81.3608C80.8402 80.7107 80.1636 79.8549 79.7217 78.8711C79.1744 77.7789 78.6833 76.6586 78.2505 75.5145C77.2946 73.1527 75.8177 67.3355 75.8177 67.3355L74.2893 61.2449L72.761 55.1077L71.6734 51.0763C68.8112 40.5762 64.85 35.4105 64.85 35.4105C61.7366 30.8989 57.3256 27.477 52.2223 25.6143C46.3034 23.4561 40.0926 24.6719 40.0926 24.6719C30.3614 26.6149 25.2496 33.3978 23 36.6612C24.0296 36.9345 25.0149 37.3577 25.9251 37.9178C27.1431 38.6586 28.1958 39.6492 29.0162 40.8264C30.4816 42.9438 30.8136 45.579 31.1055 48.0979C31.7196 53.5571 32.7804 58.9548 34.2768 64.2349C37.5739 53.124 41.5294 47.9467 41.5294 47.9467C41.9714 47.3886 42.5014 46.909 43.0978 46.5273C43.4083 46.3336 43.7556 46.2087 44.1168 46.1608C44.7863 46.0954 45.4578 46.2614 46.0229 46.632C46.1264 46.7012 46.2241 46.779 46.3149 46.8647C46.8319 47.3306 47.2759 47.8739 47.6314 48.476C48.4549 49.9718 49.1685 51.5273 49.7666 53.1298C51.003 56.6667 52.0563 60.9889 52.0563 60.9889L55.2046 73.6007C57.4943 82.1753 59.4349 86.3404 59.4349 86.3404C64.2146 97.4629 71.5245 100.593 71.5245 100.593C75.0833 102.527 79.041 103.579 83.0761 103.664C86.9279 103.771 90.7483 102.935 94.2155 101.227C98.0169 99.3268 101.352 96.5857 103.975 93.2047C105.744 91.1222 108.349 86.0495 108.349 86.0495C111.22 80.234 113.475 74.1245 115.075 67.8241C116.096 63.899 116.916 59.9224 117.53 55.9105C117.839 53.921 118.131 51.9198 118.366 49.9129C118.659 48.0125 118.6 46.0733 118.194 44.1945C118.109 43.8568 118.004 43.5246 117.879 43.1998C116.96 40.8422 115.254 38.8882 113.06 37.6792C111.433 36.8007 109.618 36.3469 107.776 36.3587Z" fill="url(#paint26_radial_7_6369)"/>
<path d="M107.776 36.3587C106.867 36.3567 105.961 36.472 105.08 36.702C107.088 39.6506 108.793 42.8006 110.169 46.1026C110.794 47.5227 111.116 49.0612 111.113 50.6168C111.111 52.0576 110.828 53.4836 110.283 54.8136C109.737 56.1435 108.94 57.3513 107.935 58.3679C106.931 59.3845 105.739 60.1901 104.428 60.7386C103.117 61.2871 101.712 61.5679 100.295 61.5648C98.3781 61.5611 96.4971 61.0391 94.8451 60.0523L93.7346 64.2233C91.7197 71.0702 90.3001 73.717 90.3001 73.717C89.5181 75.5733 88.5874 77.3613 87.5181 79.063C86.7797 80.1741 85.8351 81.291 84.5415 81.7157C84.0915 81.875 83.6107 81.9228 83.139 81.8553C82.6284 81.7924 82.1356 81.6242 81.6908 81.3608C80.8402 80.7107 80.1636 79.8549 79.7217 78.8711C79.1744 77.7789 78.6833 76.6586 78.2505 75.5145C77.2946 73.1527 75.8177 67.3355 75.8177 67.3355L74.2893 61.2449L72.761 55.1077L71.6734 51.0763C68.8112 40.5762 64.85 35.4105 64.85 35.4105C61.7366 30.8989 57.3256 27.477 52.2223 25.6143C46.3034 23.4561 40.0926 24.6719 40.0926 24.6719C30.3614 26.6149 25.2496 33.3978 23 36.6612C24.0296 36.9345 25.0149 37.3577 25.9251 37.9178C27.1431 38.6586 28.1958 39.6492 29.0162 40.8264C30.4816 42.9438 30.8136 45.579 31.1055 48.0979C31.7196 53.5571 32.7804 58.9548 34.2768 64.2349C37.5739 53.124 41.5294 47.9467 41.5294 47.9467C41.9714 47.3886 42.5014 46.909 43.0978 46.5273C43.4083 46.3336 43.7556 46.2087 44.1168 46.1608C44.7863 46.0954 45.4578 46.2614 46.0229 46.632C46.1264 46.7012 46.2241 46.779 46.3149 46.8647C46.8319 47.3306 47.2759 47.8739 47.6314 48.476C48.4549 49.9718 49.1685 51.5273 49.7666 53.1298C51.003 56.6667 52.0563 60.9889 52.0563 60.9889L55.2046 73.6007C57.4943 82.1753 59.4349 86.3404 59.4349 86.3404C64.2146 97.4629 71.5245 100.593 71.5245 100.593C75.0833 102.527 79.041 103.579 83.0761 103.664C86.9279 103.771 90.7483 102.935 94.2155 101.227C98.0169 99.3268 101.352 96.5857 103.975 93.2047C105.744 91.1222 108.349 86.0495 108.349 86.0495C111.22 80.234 113.475 74.1245 115.075 67.8241C116.096 63.899 116.916 59.9224 117.53 55.9105C117.839 53.921 118.131 51.9198 118.366 49.9129C118.659 48.0125 118.6 46.0733 118.194 44.1945C118.109 43.8568 118.004 43.5246 117.879 43.1998C116.96 40.8422 115.254 38.8882 113.06 37.6792C111.433 36.8007 109.618 36.3469 107.776 36.3587Z" fill="url(#paint27_radial_7_6369)"/>
<path d="M107.776 36.3587C106.867 36.3567 105.961 36.472 105.08 36.702C107.088 39.6506 108.793 42.8006 110.169 46.1026C110.794 47.5227 111.116 49.0612 111.113 50.6168C111.111 52.0576 110.828 53.4836 110.283 54.8136C109.737 56.1435 108.94 57.3513 107.935 58.3679C106.931 59.3845 105.739 60.1901 104.428 60.7386C103.117 61.2871 101.712 61.5679 100.295 61.5648C98.3781 61.5611 96.4971 61.0391 94.8451 60.0523L93.7346 64.2233C91.7197 71.0702 90.3001 73.717 90.3001 73.717C89.5181 75.5733 88.5874 77.3613 87.5181 79.063C86.7797 80.1741 85.8351 81.291 84.5415 81.7157C84.0915 81.875 83.6107 81.9228 83.139 81.8553C82.6284 81.7924 82.1356 81.6242 81.6908 81.3608C80.8402 80.7107 80.1636 79.8549 79.7217 78.8711C79.1744 77.7789 78.6833 76.6586 78.2505 75.5145C77.2946 73.1527 75.8177 67.3355 75.8177 67.3355L74.2893 61.2449L72.761 55.1077L71.6734 51.0763C68.8112 40.5762 64.85 35.4105 64.85 35.4105C61.7366 30.8989 57.3256 27.477 52.2223 25.6143C46.3034 23.4561 40.0926 24.6719 40.0926 24.6719C30.3614 26.6149 25.2496 33.3978 23 36.6612C24.0296 36.9345 25.0149 37.3577 25.9251 37.9178C27.1431 38.6586 28.1958 39.6492 29.0162 40.8264C30.4816 42.9438 30.8136 45.579 31.1055 48.0979C31.7196 53.5571 32.7804 58.9548 34.2768 64.2349C37.5739 53.124 41.5294 47.9467 41.5294 47.9467C41.9714 47.3886 42.5014 46.909 43.0978 46.5273C43.4083 46.3336 43.7556 46.2087 44.1168 46.1608C44.7863 46.0954 45.4578 46.2614 46.0229 46.632C46.1264 46.7012 46.2241 46.779 46.3149 46.8647C46.8319 47.3306 47.2759 47.8739 47.6314 48.476C48.4549 49.9718 49.1685 51.5273 49.7666 53.1298C51.003 56.6667 52.0563 60.9889 52.0563 60.9889L55.2046 73.6007C57.4943 82.1753 59.4349 86.3404 59.4349 86.3404C64.2146 97.4629 71.5245 100.593 71.5245 100.593C75.0833 102.527 79.041 103.579 83.0761 103.664C86.9279 103.771 90.7483 102.935 94.2155 101.227C98.0169 99.3268 101.352 96.5857 103.975 93.2047C105.744 91.1222 108.349 86.0495 108.349 86.0495C111.22 80.234 113.475 74.1245 115.075 67.8241C116.096 63.899 116.916 59.9224 117.53 55.9105C117.839 53.921 118.131 51.9198 118.366 49.9129C118.659 48.0125 118.6 46.0733 118.194 44.1945C118.109 43.8568 118.004 43.5246 117.879 43.1998C116.96 40.8422 115.254 38.8882 113.06 37.6792C111.433 36.8007 109.618 36.3469 107.776 36.3587Z" fill="url(#paint28_radial_7_6369)"/>
<path d="M107.776 36.3587C106.867 36.3567 105.961 36.472 105.08 36.702C107.088 39.6506 108.793 42.8006 110.169 46.1026C110.794 47.5227 111.116 49.0612 111.113 50.6168C111.111 52.0576 110.828 53.4836 110.283 54.8136C109.737 56.1435 108.94 57.3513 107.935 58.3679C106.931 59.3845 105.739 60.1901 104.428 60.7386C103.117 61.2871 101.712 61.5679 100.295 61.5648C98.3781 61.5611 96.4971 61.0391 94.8451 60.0523L93.7346 64.2233C91.7197 71.0702 90.3001 73.717 90.3001 73.717C89.5181 75.5733 88.5874 77.3613 87.5181 79.063C86.7797 80.1741 85.8351 81.291 84.5415 81.7157C84.0915 81.875 83.6107 81.9228 83.139 81.8553C82.6284 81.7924 82.1356 81.6242 81.6908 81.3608C80.8402 80.7107 80.1636 79.8549 79.7217 78.8711C79.1744 77.7789 78.6833 76.6586 78.2505 75.5145C77.2946 73.1527 75.8177 67.3355 75.8177 67.3355L74.2893 61.2449L72.761 55.1077L71.6734 51.0763C68.8112 40.5762 64.85 35.4105 64.85 35.4105C61.7366 30.8989 57.3256 27.477 52.2223 25.6143C46.3034 23.4561 40.0926 24.6719 40.0926 24.6719C30.3614 26.6149 25.2496 33.3978 23 36.6612C24.0296 36.9345 25.0149 37.3577 25.9251 37.9178C27.1431 38.6586 28.1958 39.6492 29.0162 40.8264C30.4816 42.9438 30.8136 45.579 31.1055 48.0979C31.7196 53.5571 32.7804 58.9548 34.2768 64.2349C37.5739 53.124 41.5294 47.9467 41.5294 47.9467C41.9714 47.3886 42.5014 46.909 43.0978 46.5273C43.4083 46.3336 43.7556 46.2087 44.1168 46.1608C44.7863 46.0954 45.4578 46.2614 46.0229 46.632C46.1264 46.7012 46.2241 46.779 46.3149 46.8647C46.8319 47.3306 47.2759 47.8739 47.6314 48.476C48.4549 49.9718 49.1685 51.5273 49.7666 53.1298C51.003 56.6667 52.0563 60.9889 52.0563 60.9889L55.2046 73.6007C57.4943 82.1753 59.4349 86.3404 59.4349 86.3404C64.2146 97.4629 71.5245 100.593 71.5245 100.593C75.0833 102.527 79.041 103.579 83.0761 103.664C86.9279 103.771 90.7483 102.935 94.2155 101.227C98.0169 99.3268 101.352 96.5857 103.975 93.2047C105.744 91.1222 108.349 86.0495 108.349 86.0495C111.22 80.234 113.475 74.1245 115.075 67.8241C116.096 63.899 116.916 59.9224 117.53 55.9105C117.839 53.921 118.131 51.9198 118.366 49.9129C118.659 48.0125 118.6 46.0733 118.194 44.1945C118.109 43.8568 118.004 43.5246 117.879 43.1998C116.96 40.8422 115.254 38.8882 113.06 37.6792C111.433 36.8007 109.618 36.3469 107.776 36.3587Z" fill="url(#paint29_radial_7_6369)"/>
<path d="M107.776 36.3587C106.867 36.3567 105.961 36.472 105.08 36.702C107.088 39.6506 108.793 42.8006 110.169 46.1026C110.794 47.5227 111.116 49.0612 111.113 50.6168C111.111 52.0576 110.828 53.4836 110.283 54.8136C109.737 56.1435 108.94 57.3513 107.935 58.3679C106.931 59.3845 105.739 60.1901 104.428 60.7386C103.117 61.2871 101.712 61.5679 100.295 61.5648C98.3781 61.5611 96.4971 61.0391 94.8451 60.0523L93.7346 64.2233C91.7197 71.0702 90.3001 73.717 90.3001 73.717C89.5181 75.5733 88.5874 77.3613 87.5181 79.063C86.7797 80.1741 85.8351 81.291 84.5415 81.7157C84.0915 81.875 83.6107 81.9228 83.139 81.8553C82.6284 81.7924 82.1356 81.6242 81.6908 81.3608C80.8402 80.7107 80.1636 79.8549 79.7217 78.8711C79.1744 77.7789 78.6833 76.6586 78.2505 75.5145C77.2946 73.1527 75.8177 67.3355 75.8177 67.3355L74.2893 61.2449L72.761 55.1077L71.6734 51.0763C68.8112 40.5762 64.85 35.4105 64.85 35.4105C61.7366 30.8989 57.3256 27.477 52.2223 25.6143C46.3034 23.4561 40.0926 24.6719 40.0926 24.6719C30.3614 26.6149 25.2496 33.3978 23 36.6612C24.0296 36.9345 25.0149 37.3577 25.9251 37.9178C27.1431 38.6586 28.1958 39.6492 29.0162 40.8264C30.4816 42.9438 30.8136 45.579 31.1055 48.0979C31.7196 53.5571 32.7804 58.9548 34.2768 64.2349C37.5739 53.124 41.5294 47.9467 41.5294 47.9467C41.9714 47.3886 42.5014 46.909 43.0978 46.5273C43.4083 46.3336 43.7556 46.2087 44.1168 46.1608C44.7863 46.0954 45.4578 46.2614 46.0229 46.632C46.1264 46.7012 46.2241 46.779 46.3149 46.8647C46.8319 47.3306 47.2759 47.8739 47.6314 48.476C48.4549 49.9718 49.1685 51.5273 49.7666 53.1298C51.003 56.6667 52.0563 60.9889 52.0563 60.9889L55.2046 73.6007C57.4943 82.1753 59.4349 86.3404 59.4349 86.3404C64.2146 97.4629 71.5245 100.593 71.5245 100.593C75.0833 102.527 79.041 103.579 83.0761 103.664C86.9279 103.771 90.7483 102.935 94.2155 101.227C98.0169 99.3268 101.352 96.5857 103.975 93.2047C105.744 91.1222 108.349 86.0495 108.349 86.0495C111.22 80.234 113.475 74.1245 115.075 67.8241C116.096 63.899 116.916 59.9224 117.53 55.9105C117.839 53.921 118.131 51.9198 118.366 49.9129C118.659 48.0125 118.6 46.0733 118.194 44.1945C118.109 43.8568 118.004 43.5246 117.879 43.1998C116.96 40.8422 115.254 38.8882 113.06 37.6792C111.433 36.8007 109.618 36.3469 107.776 36.3587Z" fill="url(#paint30_radial_7_6369)"/>
<path d="M107.776 36.3587C106.867 36.3567 105.961 36.472 105.08 36.702C107.088 39.6506 108.793 42.8006 110.169 46.1026C110.794 47.5227 111.116 49.0612 111.113 50.6168C111.111 52.0576 110.828 53.4836 110.283 54.8136C109.737 56.1435 108.94 57.3513 107.935 58.3679C106.931 59.3845 105.739 60.1901 104.428 60.7386C103.117 61.2871 101.712 61.5679 100.295 61.5648C98.3781 61.5611 96.4971 61.0391 94.8451 60.0523L93.7346 64.2233C91.7197 71.0702 90.3001 73.717 90.3001 73.717C89.5181 75.5733 88.5874 77.3613 87.5181 79.063C86.7797 80.1741 85.8351 81.291 84.5415 81.7157C84.0915 81.875 83.6107 81.9228 83.139 81.8553C82.6284 81.7924 82.1356 81.6242 81.6908 81.3608C80.8402 80.7107 80.1636 79.8549 79.7217 78.8711C79.1744 77.7789 78.6833 76.6586 78.2505 75.5145C77.2946 73.1527 75.8177 67.3355 75.8177 67.3355L74.2893 61.2449L72.761 55.1077L71.6734 51.0763C68.8112 40.5762 64.85 35.4105 64.85 35.4105C61.7366 30.8989 57.3256 27.477 52.2223 25.6143C46.3034 23.4561 40.0926 24.6719 40.0926 24.6719C30.3614 26.6149 25.2496 33.3978 23 36.6612C24.0296 36.9345 25.0149 37.3577 25.9251 37.9178C27.1431 38.6586 28.1958 39.6492 29.0162 40.8264C30.4816 42.9438 30.8136 45.579 31.1055 48.0979C31.7196 53.5571 32.7804 58.9548 34.2768 64.2349C37.5739 53.124 41.5294 47.9467 41.5294 47.9467C41.9714 47.3886 42.5014 46.909 43.0978 46.5273C43.4083 46.3336 43.7556 46.2087 44.1168 46.1608C44.7863 46.0954 45.4578 46.2614 46.0229 46.632C46.1264 46.7012 46.2241 46.779 46.3149 46.8647C46.8319 47.3306 47.2759 47.8739 47.6314 48.476C48.4549 49.9718 49.1685 51.5273 49.7666 53.1298C51.003 56.6667 52.0563 60.9889 52.0563 60.9889L55.2046 73.6007C57.4943 82.1753 59.4349 86.3404 59.4349 86.3404C64.2146 97.4629 71.5245 100.593 71.5245 100.593C75.0833 102.527 79.041 103.579 83.0761 103.664C86.9279 103.771 90.7483 102.935 94.2155 101.227C98.0169 99.3268 101.352 96.5857 103.975 93.2047C105.744 91.1222 108.349 86.0495 108.349 86.0495C111.22 80.234 113.475 74.1245 115.075 67.8241C116.096 63.899 116.916 59.9224 117.53 55.9105C117.839 53.921 118.131 51.9198 118.366 49.9129C118.659 48.0125 118.6 46.0733 118.194 44.1945C118.109 43.8568 118.004 43.5246 117.879 43.1998C116.96 40.8422 115.254 38.8882 113.06 37.6792C111.433 36.8007 109.618 36.3469 107.776 36.3587Z" fill="url(#paint31_radial_7_6369)"/>
<path d="M107.776 36.3587C106.867 36.3567 105.961 36.472 105.08 36.702C107.088 39.6506 108.793 42.8006 110.169 46.1026C110.794 47.5227 111.116 49.0612 111.113 50.6168C111.111 52.0576 110.828 53.4836 110.283 54.8136C109.737 56.1435 108.94 57.3513 107.935 58.3679C106.931 59.3845 105.739 60.1901 104.428 60.7386C103.117 61.2871 101.712 61.5679 100.295 61.5648C98.3781 61.5611 96.4971 61.0391 94.8451 60.0523L93.7346 64.2233C91.7197 71.0702 90.3001 73.717 90.3001 73.717C89.5181 75.5733 88.5874 77.3613 87.5181 79.063C86.7797 80.1741 85.8351 81.291 84.5415 81.7157C84.0915 81.875 83.6107 81.9228 83.139 81.8553C82.6284 81.7924 82.1356 81.6242 81.6908 81.3608C80.8402 80.7107 80.1636 79.8549 79.7217 78.8711C79.1744 77.7789 78.6833 76.6586 78.2505 75.5145C77.2946 73.1527 75.8177 67.3355 75.8177 67.3355L74.2893 61.2449L72.761 55.1077L71.6734 51.0763C68.8112 40.5762 64.85 35.4105 64.85 35.4105C61.7366 30.8989 57.3256 27.477 52.2223 25.6143C46.3034 23.4561 40.0926 24.6719 40.0926 24.6719C30.3614 26.6149 25.2496 33.3978 23 36.6612C24.0296 36.9345 25.0149 37.3577 25.9251 37.9178C27.1431 38.6586 28.1958 39.6492 29.0162 40.8264C30.4816 42.9438 30.8136 45.579 31.1055 48.0979C31.7196 53.5571 32.7804 58.9548 34.2768 64.2349C37.5739 53.124 41.5294 47.9467 41.5294 47.9467C41.9714 47.3886 42.5014 46.909 43.0978 46.5273C43.4083 46.3336 43.7556 46.2087 44.1168 46.1608C44.7863 46.0954 45.4578 46.2614 46.0229 46.632C46.1264 46.7012 46.2241 46.779 46.3149 46.8647C46.8319 47.3306 47.2759 47.8739 47.6314 48.476C48.4549 49.9718 49.1685 51.5273 49.7666 53.1298C51.003 56.6667 52.0563 60.9889 52.0563 60.9889L55.2046 73.6007C57.4943 82.1753 59.4349 86.3404 59.4349 86.3404C64.2146 97.4629 71.5245 100.593 71.5245 100.593C75.0833 102.527 79.041 103.579 83.0761 103.664C86.9279 103.771 90.7483 102.935 94.2155 101.227C98.0169 99.3268 101.352 96.5857 103.975 93.2047C105.744 91.1222 108.349 86.0495 108.349 86.0495C111.22 80.234 113.475 74.1245 115.075 67.8241C116.096 63.899 116.916 59.9224 117.53 55.9105C117.839 53.921 118.131 51.9198 118.366 49.9129C118.659 48.0125 118.6 46.0733 118.194 44.1945C118.109 43.8568 118.004 43.5246 117.879 43.1998C116.96 40.8422 115.254 38.8882 113.06 37.6792C111.433 36.8007 109.618 36.3469 107.776 36.3587Z" fill="url(#paint32_radial_7_6369)"/>
<path d="M107.776 36.3587C106.867 36.3567 105.961 36.472 105.08 36.702C107.088 39.6506 108.793 42.8006 110.169 46.1026C110.794 47.5227 111.116 49.0612 111.113 50.6168C111.111 52.0576 110.828 53.4836 110.283 54.8136C109.737 56.1435 108.94 57.3513 107.935 58.3679C106.931 59.3845 105.739 60.1901 104.428 60.7386C103.117 61.2871 101.712 61.5679 100.295 61.5648C98.3781 61.5611 96.4971 61.0391 94.8451 60.0523L93.7346 64.2233C91.7197 71.0702 90.3001 73.717 90.3001 73.717C89.5181 75.5733 88.5874 77.3613 87.5181 79.063C86.7797 80.1741 85.8351 81.291 84.5415 81.7157C84.0915 81.875 83.6107 81.9228 83.139 81.8553C82.6284 81.7924 82.1356 81.6242 81.6908 81.3608C80.8402 80.7107 80.1636 79.8549 79.7217 78.8711C79.1744 77.7789 78.6833 76.6586 78.2505 75.5145C77.2946 73.1527 75.8177 67.3355 75.8177 67.3355L74.2893 61.2449L72.761 55.1077L71.6734 51.0763C68.8112 40.5762 64.85 35.4105 64.85 35.4105C61.7366 30.8989 57.3256 27.477 52.2223 25.6143C46.3034 23.4561 40.0926 24.6719 40.0926 24.6719C30.3614 26.6149 25.2496 33.3978 23 36.6612C24.0296 36.9345 25.0149 37.3577 25.9251 37.9178C27.1431 38.6586 28.1958 39.6492 29.0162 40.8264C30.4816 42.9438 30.8136 45.579 31.1055 48.0979C31.7196 53.5571 32.7804 58.9548 34.2768 64.2349C37.5739 53.124 41.5294 47.9467 41.5294 47.9467C41.9714 47.3886 42.5014 46.909 43.0978 46.5273C43.4083 46.3336 43.7556 46.2087 44.1168 46.1608C44.7863 46.0954 45.4578 46.2614 46.0229 46.632C46.1264 46.7012 46.2241 46.779 46.3149 46.8647C46.8319 47.3306 47.2759 47.8739 47.6314 48.476C48.4549 49.9718 49.1685 51.5273 49.7666 53.1298C51.003 56.6667 52.0563 60.9889 52.0563 60.9889L55.2046 73.6007C57.4943 82.1753 59.4349 86.3404 59.4349 86.3404C64.2146 97.4629 71.5245 100.593 71.5245 100.593C75.0833 102.527 79.041 103.579 83.0761 103.664C86.9279 103.771 90.7483 102.935 94.2155 101.227C98.0169 99.3268 101.352 96.5857 103.975 93.2047C105.744 91.1222 108.349 86.0495 108.349 86.0495C111.22 80.234 113.475 74.1245 115.075 67.8241C116.096 63.899 116.916 59.9224 117.53 55.9105C117.839 53.921 118.131 51.9198 118.366 49.9129C118.659 48.0125 118.6 46.0733 118.194 44.1945C118.109 43.8568 118.004 43.5246 117.879 43.1998C116.96 40.8422 115.254 38.8882 113.06 37.6792C111.433 36.8007 109.618 36.3469 107.776 36.3587Z" fill="url(#paint33_radial_7_6369)"/>
<path d="M107.776 36.3587C106.867 36.3567 105.961 36.472 105.08 36.702C107.088 39.6506 108.793 42.8006 110.169 46.1026C110.794 47.5227 111.116 49.0612 111.113 50.6168C111.111 52.0576 110.828 53.4836 110.283 54.8136C109.737 56.1435 108.94 57.3513 107.935 58.3679C106.931 59.3845 105.739 60.1901 104.428 60.7386C103.117 61.2871 101.712 61.5679 100.295 61.5648C98.3781 61.5611 96.4971 61.0391 94.8451 60.0523L93.7346 64.2233C91.7197 71.0702 90.3001 73.717 90.3001 73.717C89.5181 75.5733 88.5874 77.3613 87.5181 79.063C86.7797 80.1741 85.8351 81.291 84.5415 81.7157C84.0915 81.875 83.6107 81.9228 83.139 81.8553C82.6284 81.7924 82.1356 81.6242 81.6908 81.3608C80.8402 80.7107 80.1636 79.8549 79.7217 78.8711C79.1744 77.7789 78.6833 76.6586 78.2505 75.5145C77.2946 73.1527 75.8177 67.3355 75.8177 67.3355L74.2893 61.2449L72.761 55.1077L71.6734 51.0763C68.8112 40.5762 64.85 35.4105 64.85 35.4105C61.7366 30.8989 57.3256 27.477 52.2223 25.6143C46.3034 23.4561 40.0926 24.6719 40.0926 24.6719C30.3614 26.6149 25.2496 33.3978 23 36.6612C24.0296 36.9345 25.0149 37.3577 25.9251 37.9178C27.1431 38.6586 28.1958 39.6492 29.0162 40.8264C30.4816 42.9438 30.8136 45.579 31.1055 48.0979C31.7196 53.5571 32.7804 58.9548 34.2768 64.2349C37.5739 53.124 41.5294 47.9467 41.5294 47.9467C41.9714 47.3886 42.5014 46.909 43.0978 46.5273C43.4083 46.3336 43.7556 46.2087 44.1168 46.1608C44.7863 46.0954 45.4578 46.2614 46.0229 46.632C46.1264 46.7012 46.2241 46.779 46.3149 46.8647C46.8319 47.3306 47.2759 47.8739 47.6314 48.476C48.4549 49.9718 49.1685 51.5273 49.7666 53.1298C51.003 56.6667 52.0563 60.9889 52.0563 60.9889L55.2046 73.6007C57.4943 82.1753 59.4349 86.3404 59.4349 86.3404C64.2146 97.4629 71.5245 100.593 71.5245 100.593C75.0833 102.527 79.041 103.579 83.0761 103.664C86.9279 103.771 90.7483 102.935 94.2155 101.227C98.0169 99.3268 101.352 96.5857 103.975 93.2047C105.744 91.1222 108.349 86.0495 108.349 86.0495C111.22 80.234 113.475 74.1245 115.075 67.8241C116.096 63.899 116.916 59.9224 117.53 55.9105C117.839 53.921 118.131 51.9198 118.366 49.9129C118.659 48.0125 118.6 46.0733 118.194 44.1945C118.109 43.8568 118.004 43.5246 117.879 43.1998C116.96 40.8422 115.254 38.8882 113.06 37.6792C111.433 36.8007 109.618 36.3469 107.776 36.3587Z" fill="url(#paint34_linear_7_6369)"/>
<defs>
<linearGradient id="paint0_linear_7_6369" x1="14.3338" y1="77.9226" x2="99.5696" y2="44.0202" gradientUnits="userSpaceOnUse">
<stop offset="0.13" stop-color="#1CBBF3"/>
<stop offset="0.34" stop-color="#1F99A5"/>
<stop offset="0.45" stop-color="#209CA6"/>
<stop offset="0.51" stop-color="#24A4AA"/>
<stop offset="0.57" stop-color="#2BB3B0"/>
<stop offset="0.6" stop-color="#30BDB4"/>
<stop offset="0.79" stop-color="#38BA90"/>
<stop offset="1" stop-color="#60F05A"/>
</linearGradient>
<radialGradient id="paint1_radial_7_6369" cx="0" cy="0" r="1" gradientTransform="matrix(10.9609 39.6813 -29.6758 8.46561 70.8217 57.4467)" gradientUnits="userSpaceOnUse">
<stop stop-color="#227B60"/>
<stop offset="0.14" stop-color="#227B60" stop-opacity="0.81"/>
<stop offset="0.58" stop-color="#227B60" stop-opacity="0.23"/>
<stop offset="0.78" stop-color="#227B60" stop-opacity="0"/>
</radialGradient>
<radialGradient id="paint2_radial_7_6369" cx="0" cy="0" r="1" gradientTransform="matrix(-0.548401 27.8645 -20.8357 -0.423497 76.704 54.5827)" gradientUnits="userSpaceOnUse">
<stop stop-color="#227B60"/>
<stop offset="0.25" stop-color="#227B60" stop-opacity="0.7"/>
<stop offset="0.71" stop-color="#227B60" stop-opacity="0.2"/>
<stop offset="0.92" stop-color="#227B60" stop-opacity="0"/>
</radialGradient>
<radialGradient id="paint3_radial_7_6369" cx="0" cy="0" r="1" gradientTransform="matrix(0.624596 25.972 -18.1454 0.450667 75.6461 55.6051)" gradientUnits="userSpaceOnUse">
<stop stop-color="#227B60"/>
<stop offset="0.07" stop-color="#227B60" stop-opacity="0.9"/>
<stop offset="0.34" stop-color="#227B60" stop-opacity="0.51"/>
<stop offset="0.59" stop-color="#227B60" stop-opacity="0.23"/>
<stop offset="0.79" stop-color="#227B60" stop-opacity="0.06"/>
<stop offset="0.92" stop-color="#227B60" stop-opacity="0"/>
</radialGradient>
<radialGradient id="paint4_radial_7_6369" cx="0" cy="0" r="1" gradientTransform="matrix(0.50432 20.9707 -14.6512 0.363884 76.0789 54.4209)" gradientUnits="userSpaceOnUse">
<stop stop-color="#227B60"/>
<stop offset="0.36" stop-color="#227B60" stop-opacity="0.63"/>
<stop offset="0.92" stop-color="#227B60" stop-opacity="0"/>
</radialGradient>
<radialGradient id="paint5_radial_7_6369" cx="0" cy="0" r="1" gradientTransform="matrix(0.402226 16.7254 -10.5331 0.261606 76.9793 55.6001)" gradientUnits="userSpaceOnUse">
<stop stop-color="#20735A"/>
<stop offset="0.15" stop-color="#20745A" stop-opacity="0.93"/>
<stop offset="0.38" stop-color="#21755C" stop-opacity="0.74"/>
<stop offset="0.67" stop-color="#21785D" stop-opacity="0.43"/>
<stop offset="1" stop-color="#227B60" stop-opacity="0"/>
</radialGradient>
<radialGradient id="paint6_radial_7_6369" cx="0" cy="0" r="1" gradientTransform="matrix(24.239 10.8643 -8.01799 18.4745 79.1849 58.2687)" gradientUnits="userSpaceOnUse">
<stop stop-color="#227A61"/>
<stop offset="0.36" stop-color="#227A61" stop-opacity="0.56"/>
<stop offset="0.72" stop-color="#227A61" stop-opacity="0.16"/>
<stop offset="0.9" stop-color="#227A61" stop-opacity="0"/>
</radialGradient>
<radialGradient id="paint7_radial_7_6369" cx="0" cy="0" r="1" gradientTransform="matrix(28.8439 20.7332 -18.6544 26.8019 72.1635 16.2036)" gradientUnits="userSpaceOnUse">
<stop stop-color="#3CD9C3"/>
<stop offset="0.07" stop-color="#3BD7C1" stop-opacity="0.9"/>
<stop offset="0.41" stop-color="#38CEB9" stop-opacity="0.42"/>
<stop offset="0.65" stop-color="#36C8B4" stop-opacity="0.12"/>
<stop offset="0.76" stop-color="#35C6B2" stop-opacity="0"/>
</radialGradient>
<radialGradient id="paint8_radial_7_6369" cx="0" cy="0" r="1" gradientTransform="matrix(5122.99 3682.44 -2543.55 3654.47 30698.1 -16277.8)" gradientUnits="userSpaceOnUse">
<stop stop-color="#3CD9C3"/>
<stop offset="0.07" stop-color="#3BD7C1" stop-opacity="0.9"/>
<stop offset="0.41" stop-color="#38CEB9" stop-opacity="0.42"/>
<stop offset="0.65" stop-color="#36C8B4" stop-opacity="0.12"/>
<stop offset="0.76" stop-color="#35C6B2" stop-opacity="0"/>
</radialGradient>
<radialGradient id="paint9_radial_7_6369" cx="0" cy="0" r="1" gradientTransform="matrix(-5.9306 31.087 -37.8009 -7.44763 86.2354 64.4664)" gradientUnits="userSpaceOnUse">
<stop stop-color="#237F66" stop-opacity="0.8"/>
<stop offset="0.06" stop-color="#2C8C70" stop-opacity="0.65"/>
<stop offset="0.21" stop-color="#3DA785" stop-opacity="0.37"/>
<stop offset="0.35" stop-color="#4ABA93" stop-opacity="0.17"/>
<stop offset="0.47" stop-color="#51C59C" stop-opacity="0.04"/>
<stop offset="0.56" stop-color="#54C99F" stop-opacity="0"/>
</radialGradient>
<radialGradient id="paint10_radial_7_6369" cx="0" cy="0" r="1" gradientTransform="matrix(25.7231 -32.0747 34.087 28.2322 66.9361 66.7196)" gradientUnits="userSpaceOnUse">
<stop stop-color="#167C8A"/>
<stop offset="0.04" stop-color="#167C8A" stop-opacity="0.93"/>
<stop offset="0.33" stop-color="#177F8D" stop-opacity="0.43"/>
<stop offset="0.54" stop-color="#17818F" stop-opacity="0.12"/>
<stop offset="0.65" stop-color="#178290" stop-opacity="0"/>
</radialGradient>
<radialGradient id="paint11_radial_7_6369" cx="0" cy="0" r="1" gradientTransform="matrix(33.8093 -21.1871 16.4703 27.1432 64.4934 70.8996)" gradientUnits="userSpaceOnUse">
<stop offset="0.05" stop-color="#177D87"/>
<stop offset="0.11" stop-color="#177E89" stop-opacity="0.8"/>
<stop offset="0.21" stop-color="#177F8B" stop-opacity="0.52"/>
<stop offset="0.32" stop-color="#17818D" stop-opacity="0.29"/>
<stop offset="0.42" stop-color="#17818F" stop-opacity="0.13"/>
<stop offset="0.51" stop-color="#178290" stop-opacity="0.03"/>
<stop offset="0.6" stop-color="#178290" stop-opacity="0"/>
</radialGradient>
<radialGradient id="paint12_radial_7_6369" cx="0" cy="0" r="1" gradientTransform="matrix(-15.3816 -18.2769 14.1615 -12.3085 54.6986 71.5956)" gradientUnits="userSpaceOnUse">
<stop offset="0.26" stop-color="#177F8A"/>
<stop offset="0.27" stop-color="#177F8A" stop-opacity="0.98"/>
<stop offset="0.38" stop-color="#17808C" stop-opacity="0.68"/>
<stop offset="0.5" stop-color="#17818D" stop-opacity="0.43"/>
<stop offset="0.62" stop-color="#17818F" stop-opacity="0.24"/>
<stop offset="0.74" stop-color="#17828F" stop-opacity="0.11"/>
<stop offset="0.86" stop-color="#178290" stop-opacity="0.03"/>
<stop offset="1" stop-color="#178290" stop-opacity="0"/>
</radialGradient>
<radialGradient id="paint13_radial_7_6369" cx="0" cy="0" r="1" gradientTransform="matrix(-22.0383 -2.70628 2.66303 -22.3963 50.4086 77.5073)" gradientUnits="userSpaceOnUse">
<stop stop-color="#13656E"/>
<stop offset="0.11" stop-color="#13646E" stop-opacity="0.73"/>
<stop offset="0.27" stop-color="#12646E" stop-opacity="0.41"/>
<stop offset="0.42" stop-color="#12636E" stop-opacity="0.18"/>
<stop offset="0.55" stop-color="#12636E" stop-opacity="0.05"/>
<stop offset="0.66" stop-color="#12636E" stop-opacity="0"/>
</radialGradient>
<radialGradient id="paint14_radial_7_6369" cx="0" cy="0" r="1" gradientTransform="matrix(-7.60198 -13.7554 11.3698 -6.48939 49.8261 80.8669)" gradientUnits="userSpaceOnUse">
<stop offset="0.13" stop-color="#146A73"/>
<stop offset="0.24" stop-color="#156F79" stop-opacity="0.79"/>
<stop offset="0.45" stop-color="#167783" stop-opacity="0.45"/>
<stop offset="0.65" stop-color="#167D8A" stop-opacity="0.2"/>
<stop offset="0.82" stop-color="#17818E" stop-opacity="0.05"/>
<stop offset="0.95" stop-color="#178290" stop-opacity="0"/>
</radialGradient>
<radialGradient id="paint15_radial_7_6369" cx="0" cy="0" r="1" gradientTransform="matrix(8.16781 -12.3025 9.59052 6.57582 48.6166 74.2914)" gradientUnits="userSpaceOnUse">
<stop stop-color="#198E9C"/>
<stop offset="0.1" stop-color="#198E9C" stop-opacity="0.87"/>
<stop offset="0.41" stop-color="#198E9C" stop-opacity="0.5"/>
<stop offset="0.67" stop-color="#198E9C" stop-opacity="0.23"/>
<stop offset="0.88" stop-color="#198E9C" stop-opacity="0.06"/>
<stop offset="1" stop-color="#198E9C" stop-opacity="0"/>
</radialGradient>
<linearGradient id="paint16_linear_7_6369" x1="19.8005" y1="22.5252" x2="57.793" y2="57.1265" gradientUnits="userSpaceOnUse">
<stop offset="0.13" stop-color="#2BF9FF"/>
<stop offset="0.27" stop-color="#29F9FF" stop-opacity="0.64"/>
<stop offset="0.4" stop-color="#27FAFF" stop-opacity="0.3"/>
<stop offset="0.49" stop-color="#26FAFF" stop-opacity="0.08"/>
<stop offset="0.54" stop-color="#26FAFF" stop-opacity="0"/>
</linearGradient>
<linearGradient id="paint17_linear_7_6369" x1="-1.40211" y1="79.9877" x2="42.4345" y2="67.7583" gradientUnits="userSpaceOnUse">
<stop stop-color="#26FAFF"/>
<stop offset="0.06" stop-color="#26FAFF" stop-opacity="0.88"/>
<stop offset="0.24" stop-color="#26FAFF" stop-opacity="0.51"/>
<stop offset="0.39" stop-color="#26FAFF" stop-opacity="0.23"/>
<stop offset="0.5" stop-color="#26FAFF" stop-opacity="0.06"/>
<stop offset="0.55" stop-color="#26FAFF" stop-opacity="0"/>
</linearGradient>
<linearGradient id="paint18_linear_7_6369" x1="10.1837" y1="78.4404" x2="59.652" y2="61.0914" gradientUnits="userSpaceOnUse">
<stop stop-color="#21DEFF"/>
<stop offset="0.04" stop-color="#21DEFF" stop-opacity="0.88"/>
<stop offset="0.17" stop-color="#21DEFF" stop-opacity="0.51"/>
<stop offset="0.27" stop-color="#21DEFF" stop-opacity="0.23"/>
<stop offset="0.34" stop-color="#21DEFF" stop-opacity="0.06"/>
<stop offset="0.38" stop-color="#21DEFF" stop-opacity="0"/>
</linearGradient>
<linearGradient id="paint19_linear_7_6369" x1="57.0195" y1="52.6002" x2="85.2378" y2="97.8893" gradientUnits="userSpaceOnUse">
<stop offset="0.62" stop-color="#21DEFF" stop-opacity="0"/>
<stop offset="0.66" stop-color="#21DEFF" stop-opacity="0.06"/>
<stop offset="0.73" stop-color="#21DEFF" stop-opacity="0.23"/>
<stop offset="0.83" stop-color="#21DEFF" stop-opacity="0.51"/>
<stop offset="0.96" stop-color="#21DEFF" stop-opacity="0.88"/>
<stop offset="1" stop-color="#21DEFF"/>
</linearGradient>
<linearGradient id="paint20_linear_7_6369" x1="87.7016" y1="69.674" x2="83.2264" y2="48.2077" gradientUnits="userSpaceOnUse">
<stop stop-color="#44B044"/>
<stop offset="0.11" stop-color="#44B044" stop-opacity="0.8"/>
<stop offset="0.27" stop-color="#44B044" stop-opacity="0.52"/>
<stop offset="0.43" stop-color="#44B044" stop-opacity="0.29"/>
<stop offset="0.58" stop-color="#44B044" stop-opacity="0.13"/>
<stop offset="0.7" stop-color="#44B044" stop-opacity="0.03"/>
<stop offset="0.8" stop-color="#44B044" stop-opacity="0"/>
</linearGradient>
<linearGradient id="paint21_linear_7_6369" x1="27.2016" y1="47.394" x2="118.75" y2="77.2171" gradientUnits="userSpaceOnUse">
<stop stop-color="#3066FB"/>
<stop offset="0.38" stop-color="#2F64F7"/>
<stop offset="0.74" stop-color="#2857D9"/>
<stop offset="1" stop-color="#3C7EFF"/>
</linearGradient>
<radialGradient id="paint22_radial_7_6369" cx="0" cy="0" r="1" gradientTransform="matrix(-7.37386 49.0284 -31.8415 -4.9458 91.6241 61.4073)" gradientUnits="userSpaceOnUse">
<stop stop-color="#1A3D9C"/>
<stop offset="0.4" stop-color="#1A3D9C" stop-opacity="0.42"/>
<stop offset="0.7" stop-color="#1A3D9C" stop-opacity="0"/>
</radialGradient>
<radialGradient id="paint23_radial_7_6369" cx="0" cy="0" r="1" gradientTransform="matrix(-907.038 6030.84 -3200.4 -497.104 14367.6 24158.9)" gradientUnits="userSpaceOnUse">
<stop stop-color="#1A3D9C"/>
<stop offset="0.4" stop-color="#1A3D9C" stop-opacity="0.42"/>
<stop offset="0.7" stop-color="#1A3D9C" stop-opacity="0"/>
</radialGradient>
<radialGradient id="paint24_radial_7_6369" cx="0" cy="0" r="1" gradientTransform="matrix(-1071.05 7183.79 -2920.91 -449.748 10856.1 23104.7)" gradientUnits="userSpaceOnUse">
<stop stop-color="#1A3D9C"/>
<stop offset="0.4" stop-color="#1A3D9C" stop-opacity="0.42"/>
<stop offset="0.7" stop-color="#1A3D9C" stop-opacity="0"/>
</radialGradient>
<radialGradient id="paint25_radial_7_6369" cx="0" cy="0" r="1" gradientTransform="matrix(5.13326 43.0375 -29.5489 3.63984 83.8586 58.0668)" gradientUnits="userSpaceOnUse">
<stop stop-color="#1A3D9C"/>
<stop offset="0.16" stop-color="#1A3D9C" stop-opacity="0.69"/>
<stop offset="0.33" stop-color="#1A3D9C" stop-opacity="0.4"/>
<stop offset="0.49" stop-color="#1A3D9C" stop-opacity="0.18"/>
<stop offset="0.61" stop-color="#1A3D9C" stop-opacity="0.05"/>
<stop offset="0.7" stop-color="#1A3D9C" stop-opacity="0"/>
</radialGradient>
<radialGradient id="paint26_radial_7_6369" cx="0" cy="0" r="1" gradientTransform="matrix(10.8594 40.1748 -26.8822 7.50436 93.2578 66.1851)" gradientUnits="userSpaceOnUse">
<stop stop-color="#18388F"/>
<stop offset="0.37" stop-color="#193B96" stop-opacity="0.45"/>
<stop offset="0.7" stop-color="#1A3D9C" stop-opacity="0"/>
</radialGradient>
<radialGradient id="paint27_radial_7_6369" cx="0" cy="0" r="1" gradientTransform="matrix(5.04913 18.6794 -17.4618 4.87459 89.1741 77.2895)" gradientUnits="userSpaceOnUse">
<stop stop-color="#18388F"/>
<stop offset="0.09" stop-color="#183992" stop-opacity="0.78"/>
<stop offset="0.22" stop-color="#193B96" stop-opacity="0.5"/>
<stop offset="0.35" stop-color="#193C98" stop-opacity="0.28"/>
<stop offset="0.47" stop-color="#1A3C9A" stop-opacity="0.13"/>
<stop offset="0.59" stop-color="#1A3D9C" stop-opacity="0.03"/>
<stop offset="0.7" stop-color="#1A3D9C" stop-opacity="0"/>
</radialGradient>
<radialGradient id="paint28_radial_7_6369" cx="0" cy="0" r="1" gradientTransform="matrix(5.04913 18.6794 -17.4618 4.87459 89.6315 80.5941)" gradientUnits="userSpaceOnUse">
<stop stop-color="#1A3D9C" stop-opacity="0.8"/>
<stop offset="0.01" stop-color="#1A3D9C" stop-opacity="0.78"/>
<stop offset="0.24" stop-color="#1A3D9C" stop-opacity="0.45"/>
<stop offset="0.44" stop-color="#1A3D9C" stop-opacity="0.2"/>
<stop offset="0.6" stop-color="#1A3D9C" stop-opacity="0.05"/>
<stop offset="0.7" stop-color="#1A3D9C" stop-opacity="0"/>
</radialGradient>
<radialGradient id="paint29_radial_7_6369" cx="0" cy="0" r="1" gradientTransform="matrix(17.7547 42.5633 -27.7933 11.9733 40.3042 69.1835)" gradientUnits="userSpaceOnUse">
<stop stop-color="#1A3D9C"/>
<stop offset="0.4" stop-color="#1A3D9C" stop-opacity="0.56"/>
<stop offset="0.48" stop-color="#1A3D9C" stop-opacity="0.43"/>
<stop offset="0.69" stop-color="#1A3D9C" stop-opacity="0.12"/>
<stop offset="0.79" stop-color="#1A3D9C" stop-opacity="0"/>
</radialGradient>
<radialGradient id="paint30_radial_7_6369" cx="0" cy="0" r="1" gradientTransform="matrix(8.10417 33.2864 -21.6241 5.43721 37.3928 58.3507)" gradientUnits="userSpaceOnUse">
<stop stop-color="#1A3D9C"/>
<stop offset="0.06" stop-color="#1A3D9C" stop-opacity="0.88"/>
<stop offset="0.21" stop-color="#1A3D9C" stop-opacity="0.61"/>
<stop offset="0.36" stop-color="#1A3D9C" stop-opacity="0.39"/>
<stop offset="0.51" stop-color="#1A3D9C" stop-opacity="0.22"/>
<stop offset="0.67" stop-color="#1A3D9C" stop-opacity="0.1"/>
<stop offset="0.83" stop-color="#1A3D9C" stop-opacity="0.02"/>
<stop offset="1" stop-color="#1A3D9C" stop-opacity="0"/>
</radialGradient>
<radialGradient id="paint31_radial_7_6369" cx="0" cy="0" r="1" gradientTransform="matrix(8.10417 33.2864 -21.6241 5.43721 37.3928 58.3507)" gradientUnits="userSpaceOnUse">
<stop stop-color="#1B3E9E"/>
<stop offset="0.06" stop-color="#1B3E9E" stop-opacity="0.87"/>
<stop offset="0.21" stop-color="#1B3E9D" stop-opacity="0.61"/>
<stop offset="0.36" stop-color="#1A3D9D" stop-opacity="0.39"/>
<stop offset="0.52" stop-color="#1A3D9C" stop-opacity="0.22"/>
<stop offset="0.67" stop-color="#1A3D9C" stop-opacity="0.1"/>
<stop offset="0.83" stop-color="#1A3D9C" stop-opacity="0.02"/>
<stop offset="1" stop-color="#1A3D9C" stop-opacity="0"/>
</radialGradient>
<radialGradient id="paint32_radial_7_6369" cx="0" cy="0" r="1" gradientTransform="matrix(6.20005 25.4655 -16.5434 4.1597 38.6723 55.0076)" gradientUnits="userSpaceOnUse">
<stop stop-color="#183991"/>
<stop offset="0.03" stop-color="#183992" stop-opacity="0.95"/>
<stop offset="0.18" stop-color="#193A95" stop-opacity="0.66"/>
<stop offset="0.34" stop-color="#193B97" stop-opacity="0.42"/>
<stop offset="0.5" stop-color="#1A3C99" stop-opacity="0.24"/>
<stop offset="0.66" stop-color="#1A3D9B" stop-opacity="0.1"/>
<stop offset="0.82" stop-color="#1A3D9C" stop-opacity="0.03"/>
<stop offset="1" stop-color="#1A3D9C" stop-opacity="0"/>
</radialGradient>
<radialGradient id="paint33_radial_7_6369" cx="0" cy="0" r="1" gradientTransform="matrix(1.01863 20.7036 -17.934 0.911264 43.5066 58.47)" gradientUnits="userSpaceOnUse">
<stop offset="0.04" stop-color="#2453D6" stop-opacity="0.6"/>
<stop offset="0.2" stop-color="#2453D6" stop-opacity="0.49"/>
<stop offset="0.52" stop-color="#2453D6" stop-opacity="0.2"/>
<stop offset="0.73" stop-color="#2453D6" stop-opacity="0"/>
</radialGradient>
<linearGradient id="paint34_linear_7_6369" x1="86.4992" y1="9.52384" x2="62.8018" y2="67.1631" gradientUnits="userSpaceOnUse">
<stop stop-color="#3774FF"/>
<stop offset="0.05" stop-color="#3774FF" stop-opacity="0.91"/>
<stop offset="0.16" stop-color="#3774FF" stop-opacity="0.66"/>
<stop offset="0.32" stop-color="#3774FF" stop-opacity="0.28"/>
<stop offset="0.43" stop-color="#3774FF" stop-opacity="0"/>
</linearGradient>
</defs>
</svg>
